<svg width="259" height="158" viewBox="0 0 259 158" fill="none" xmlns="http://www.w3.org/2000/svg">
<path d="M130.005 158C122.296 151.746 113.944 146.891 104.95 143.434C95.9564 139.978 86.6412 138.25 77.0049 138.25C70.2594 138.25 63.636 139.155 57.1347 140.966C50.6334 142.776 44.4083 145.327 38.4594 148.619C35.0867 150.429 31.836 150.347 28.7074 148.372C25.5788 146.397 24.0113 143.517 24.0049 139.731V20.7375C24.0049 18.9271 24.4482 17.199 25.3347 15.5531C26.2212 13.9073 27.5446 12.6729 29.3049 11.85C36.6928 7.9 44.4018 4.9375 52.4321 2.9625C60.4624 0.987502 68.6534 0 77.0049 0C86.32 0 95.436 1.23438 104.353 3.70312C113.27 6.17188 121.82 9.875 130.005 14.8125C138.196 9.875 146.75 6.17188 155.666 3.70312C164.583 1.23438 173.696 0 183.005 0C191.356 0 199.547 0.987502 207.578 2.9625C215.608 4.9375 223.317 7.9 230.705 11.85C232.471 12.6729 233.798 13.9073 234.685 15.5531C235.571 17.199 236.011 18.9271 236.005 20.7375V139.731C236.005 143.517 234.441 146.397 231.312 148.372C228.183 150.347 224.929 150.429 221.55 148.619C215.608 145.327 209.386 142.776 202.885 140.966C196.383 139.155 189.757 138.25 183.005 138.25C173.368 138.25 164.053 139.978 155.059 143.434C146.065 146.891 137.714 151.746 130.005 158Z" fill="#F1F0F0"/>
<path d="M77.0049 118.5C84.5533 118.5 91.9027 119.366 99.0528 121.097C106.203 122.829 122.945 127.524 130.005 130.974V81.2868V31.6C123.42 27.65 106.797 24.6875 99.4094 22.7125C92.0215 20.7375 84.5533 19.75 77.0049 19.75C71.223 19.75 65.4798 20.326 59.7751 21.4781C54.0703 22.6302 48.5712 24.3583 43.2776 26.6625V124.425C48.8988 122.45 54.4815 120.969 60.0256 119.981C65.5697 118.994 71.2295 118.5 77.0049 118.5ZM130.005 130.974C137.072 127.517 153.816 122.822 160.966 121.097C168.117 119.372 175.463 118.507 183.005 118.5C188.787 118.5 194.45 118.994 199.994 119.981C205.538 120.969 211.117 122.45 216.732 124.425V26.6625C211.432 24.3583 205.93 22.6302 200.225 21.4781C194.52 20.326 188.78 19.75 183.005 19.75C175.456 19.75 167.988 20.7375 160.6 22.7125C153.212 24.6875 136.59 27.65 130.005 31.6V130.974ZM130.005 158C122.296 151.746 113.944 146.891 104.95 143.434C95.9564 139.978 86.6412 138.25 77.0049 138.25C70.2594 138.25 63.636 139.155 57.1347 140.966C50.6334 142.776 44.4083 145.327 38.4594 148.619C35.0867 150.429 31.836 150.347 28.7074 148.372C25.5788 146.397 24.0113 143.517 24.0049 139.731V20.7375C24.0049 18.9271 24.4482 17.199 25.3347 15.5531C26.2212 13.9073 27.5446 12.6729 29.3049 11.85C36.6928 7.9 44.4018 4.9375 52.4321 2.9625C60.4624 0.987502 68.6534 0 77.0049 0C86.32 0 95.436 1.23438 104.353 3.70312C113.27 6.17188 121.82 9.875 130.005 14.8125C138.196 9.875 146.75 6.17188 155.666 3.70312C164.583 1.23438 173.696 0 183.005 0C191.356 0 199.547 0.987502 207.578 2.9625C215.608 4.9375 223.317 7.9 230.705 11.85C232.471 12.6729 233.798 13.9073 234.685 15.5531C235.571 17.199 236.011 18.9271 236.005 20.7375V139.731C236.005 143.517 234.441 146.397 231.312 148.372C228.183 150.347 224.929 150.429 221.55 148.619C215.608 145.327 209.386 142.776 202.885 140.966C196.383 139.155 189.757 138.25 183.005 138.25C173.368 138.25 164.053 139.978 155.059 143.434C146.065 146.891 137.714 151.746 130.005 158Z" fill="#E53935"/>
<path d="M236.93 59.3C238.61 59.3 240.15 59.56 241.55 60.08C242.95 60.6 244.15 61.26 245.15 62.06C246.19 62.86 246.99 63.68 247.55 64.52C248.15 65.32 248.45 66 248.45 66.56L246.89 67.34V62.96C246.89 61.92 247.23 61.06 247.91 60.38C248.59 59.66 249.45 59.3 250.49 59.3C251.53 59.3 252.39 59.64 253.07 60.32C253.75 61 254.09 61.88 254.09 62.96V89.66C254.09 93.14 253.33 95.92 251.81 98C250.33 100.12 248.37 101.64 245.93 102.56C243.49 103.52 240.87 104 238.07 104C237.27 104 236.23 103.9 234.95 103.7C233.67 103.5 232.45 103.26 231.29 102.98C230.13 102.7 229.25 102.44 228.65 102.2C227.45 101.68 226.61 101.02 226.13 100.22C225.69 99.4601 225.61 98.64 225.89 97.76C226.25 96.6 226.83 95.8001 227.63 95.3601C228.43 94.9601 229.27 94.9201 230.15 95.2401C230.55 95.3601 231.21 95.6 232.13 95.96C233.05 96.32 234.05 96.6401 235.13 96.9201C236.25 97.2401 237.23 97.4001 238.07 97.4001C241.07 97.4001 243.29 96.8 244.73 95.6C246.17 94.4 246.89 92.74 246.89 90.62V85.4L247.61 85.94C247.61 86.46 247.33 87.1001 246.77 87.8601C246.25 88.5801 245.51 89.3 244.55 90.0201C243.63 90.7401 242.53 91.3601 241.25 91.8801C239.97 92.3601 238.61 92.6 237.17 92.6C234.33 92.6 231.77 91.9 229.49 90.5C227.21 89.06 225.41 87.1 224.09 84.62C222.77 82.1 222.11 79.22 222.11 75.98C222.11 72.7 222.77 69.8201 224.09 67.34C225.41 64.82 227.19 62.86 229.43 61.46C231.67 60.02 234.17 59.3 236.93 59.3ZM238.07 65.9C236.27 65.9 234.69 66.34 233.33 67.22C231.97 68.1 230.91 69.3 230.15 70.82C229.39 72.34 229.01 74.06 229.01 75.98C229.01 77.86 229.39 79.56 230.15 81.08C230.91 82.6 231.97 83.8 233.33 84.68C234.69 85.5601 236.27 86 238.07 86C239.91 86 241.51 85.5601 242.87 84.68C244.23 83.8 245.29 82.6 246.05 81.08C246.81 79.56 247.19 77.86 247.19 75.98C247.19 74.06 246.81 72.34 246.05 70.82C245.29 69.3 244.23 68.1 242.87 67.22C241.51 66.34 239.91 65.9 238.07 65.9Z" fill="#E53935"/>
<path d="M205.028 59.3C207.988 59.3 210.228 59.92 211.748 61.16C213.308 62.4 214.368 64.06 214.928 66.14C215.528 68.18 215.828 70.46 215.828 72.98V88.34C215.828 89.38 215.488 90.26 214.808 90.98C214.128 91.66 213.268 92 212.228 92C211.188 92 210.328 91.66 209.648 90.98C208.968 90.26 208.628 89.38 208.628 88.34V72.98C208.628 71.66 208.448 70.48 208.088 69.44C207.768 68.36 207.168 67.5 206.288 66.86C205.408 66.22 204.148 65.9 202.508 65.9C200.908 65.9 199.548 66.22 198.428 66.86C197.348 67.5 196.508 68.36 195.908 69.44C195.348 70.48 195.068 71.66 195.068 72.98V88.34C195.068 89.38 194.728 90.26 194.048 90.98C193.368 91.66 192.508 92 191.468 92C190.428 92 189.568 91.66 188.888 90.98C188.208 90.26 187.868 89.38 187.868 88.34V63.56C187.868 62.52 188.208 61.66 188.888 60.98C189.568 60.26 190.428 59.9 191.468 59.9C192.508 59.9 193.368 60.26 194.048 60.98C194.728 61.66 195.068 62.52 195.068 63.56V66.14L194.168 65.96C194.528 65.28 195.048 64.56 195.728 63.8C196.408 63 197.208 62.26 198.128 61.58C199.048 60.9 200.088 60.36 201.248 59.96C202.408 59.52 203.668 59.3 205.028 59.3Z" fill="#E53935"/>
<path d="M180.468 88.34C180.468 89.38 180.128 90.26 179.448 90.98C178.768 91.66 177.908 92 176.868 92C175.828 92 174.968 91.66 174.288 90.98C173.608 90.26 173.268 89.38 173.268 88.34V63.56C173.268 62.52 173.608 61.66 174.288 60.98C174.968 60.26 175.828 59.9 176.868 59.9C177.908 59.9 178.768 60.26 179.448 60.98C180.128 61.66 180.468 62.52 180.468 63.56V88.34ZM176.808 56C175.448 56 174.488 55.78 173.928 55.34C173.368 54.9 173.088 54.12 173.088 53V51.86C173.088 50.7 173.388 49.92 173.988 49.52C174.628 49.08 175.588 48.86 176.868 48.86C178.268 48.86 179.248 49.08 179.808 49.52C180.368 49.96 180.648 50.74 180.648 51.86V53C180.648 54.16 180.348 54.96 179.748 55.4C179.148 55.8 178.168 56 176.808 56Z" fill="#E53935"/>
<path d="M155.106 59.3C158.066 59.3 160.306 59.92 161.826 61.16C163.386 62.4 164.446 64.06 165.006 66.14C165.606 68.18 165.906 70.46 165.906 72.98V88.34C165.906 89.38 165.566 90.26 164.886 90.98C164.206 91.66 163.346 92 162.306 92C161.266 92 160.406 91.66 159.726 90.98C159.046 90.26 158.706 89.38 158.706 88.34V72.98C158.706 71.66 158.526 70.48 158.166 69.44C157.846 68.36 157.246 67.5 156.366 66.86C155.486 66.22 154.226 65.9 152.586 65.9C150.986 65.9 149.626 66.22 148.506 66.86C147.426 67.5 146.586 68.36 145.986 69.44C145.426 70.48 145.146 71.66 145.146 72.98V88.34C145.146 89.38 144.806 90.26 144.126 90.98C143.446 91.66 142.586 92 141.546 92C140.506 92 139.646 91.66 138.966 90.98C138.286 90.26 137.946 89.38 137.946 88.34V63.56C137.946 62.52 138.286 61.66 138.966 60.98C139.646 60.26 140.506 59.9 141.546 59.9C142.586 59.9 143.446 60.26 144.126 60.98C144.806 61.66 145.146 62.52 145.146 63.56V66.14L144.246 65.96C144.606 65.28 145.126 64.56 145.806 63.8C146.486 63 147.286 62.26 148.206 61.58C149.126 60.9 150.166 60.36 151.326 59.96C152.486 59.52 153.746 59.3 155.106 59.3Z" fill="#E53935"/>
<path d="M115.53 92C114.49 92 113.63 91.66 112.95 90.98C112.27 90.26 111.93 89.38 111.93 88.34V63.56C111.93 62.52 112.27 61.66 112.95 60.98C113.63 60.26 114.49 59.9 115.53 59.9C116.57 59.9 117.43 60.26 118.11 60.98C118.79 61.66 119.13 62.52 119.13 63.56V69.2L118.71 65.18C119.15 64.22 119.71 63.38 120.39 62.66C121.11 61.9 121.91 61.28 122.79 60.8C123.67 60.28 124.61 59.9 125.61 59.66C126.61 59.42 127.61 59.3 128.61 59.3C129.81 59.3 130.81 59.64 131.61 60.32C132.45 61 132.87 61.8 132.87 62.72C132.87 64.04 132.53 65 131.85 65.6C131.17 66.16 130.43 66.44 129.63 66.44C128.87 66.44 128.17 66.3 127.53 66.02C126.93 65.74 126.23 65.6 125.43 65.6C124.71 65.6 123.97 65.78 123.21 66.14C122.49 66.46 121.81 66.98 121.17 67.7C120.57 68.42 120.07 69.32 119.67 70.4C119.31 71.44 119.13 72.68 119.13 74.12V88.34C119.13 89.38 118.79 90.26 118.11 90.98C117.43 91.66 116.57 92 115.53 92Z" fill="#E53935"/>
<path d="M100.535 59.3C101.575 59.3 102.435 59.64 103.115 60.32C103.795 61 104.135 61.88 104.135 62.96V88.34C104.135 89.38 103.795 90.26 103.115 90.98C102.435 91.66 101.575 92 100.535 92C99.4945 92 98.6345 91.66 97.9545 90.98C97.2745 90.26 96.9345 89.38 96.9345 88.34V85.4L98.2545 85.94C98.2545 86.46 97.9745 87.1001 97.4145 87.8601C96.8545 88.5801 96.0945 89.3 95.1345 90.0201C94.1745 90.7401 93.0345 91.3601 91.7145 91.8801C90.4345 92.3601 89.0345 92.6 87.5145 92.6C84.7545 92.6 82.2545 91.9 80.0145 90.5C77.7745 89.06 75.9945 87.1 74.6745 84.62C73.3945 82.1 72.7545 79.22 72.7545 75.98C72.7545 72.7 73.3945 69.8201 74.6745 67.34C75.9945 64.82 77.7545 62.86 79.9545 61.46C82.1545 60.02 84.5945 59.3 87.2745 59.3C88.9945 59.3 90.5745 59.56 92.0145 60.08C93.4545 60.6 94.6945 61.26 95.7345 62.06C96.8145 62.86 97.6345 63.68 98.1945 64.52C98.7945 65.32 99.0945 66 99.0945 66.56L96.9345 67.34V62.96C96.9345 61.92 97.2745 61.06 97.9545 60.38C98.6345 59.66 99.4945 59.3 100.535 59.3ZM88.4145 86C90.1745 86 91.7145 85.5601 93.0345 84.68C94.3545 83.8 95.3745 82.6 96.0945 81.08C96.8545 79.56 97.2345 77.86 97.2345 75.98C97.2345 74.06 96.8545 72.34 96.0945 70.82C95.3745 69.3 94.3545 68.1 93.0345 67.22C91.7145 66.34 90.1745 65.9 88.4145 65.9C86.6945 65.9 85.1745 66.34 83.8545 67.22C82.5345 68.1 81.4945 69.3 80.7345 70.82C80.0145 72.34 79.6545 74.06 79.6545 75.98C79.6545 77.86 80.0145 79.56 80.7345 81.08C81.4945 82.6 82.5345 83.8 83.8545 84.68C85.1745 85.5601 86.6945 86 88.4145 86Z" fill="#E53935"/>
<path d="M53.7495 92.6C50.3495 92.6 47.3895 91.9 44.8695 90.5C42.3895 89.06 40.4695 87.12 39.1095 84.68C37.7895 82.24 37.1295 79.48 37.1295 76.4C37.1295 72.8 37.8495 69.74 39.2895 67.22C40.7695 64.66 42.6895 62.7 45.0495 61.34C47.4095 59.98 49.9095 59.3 52.5495 59.3C54.5895 59.3 56.5095 59.72 58.3095 60.56C60.1495 61.4 61.7695 62.56 63.1695 64.04C64.5695 65.48 65.6695 67.16 66.4695 69.08C67.3095 71 67.7295 73.04 67.7295 75.2001C67.6895 76.16 67.3095 76.9401 66.5895 77.5401C65.8695 78.1401 65.0295 78.44 64.0695 78.44H41.1495L39.3495 72.44H61.3695L60.0495 73.64V72.0201C59.9695 70.86 59.5495 69.82 58.7895 68.9C58.0695 67.98 57.1495 67.26 56.0295 66.74C54.9495 66.18 53.7895 65.9 52.5495 65.9C51.3495 65.9 50.2295 66.06 49.1895 66.38C48.1495 66.7 47.2495 67.24 46.4895 68C45.7295 68.76 45.1295 69.7801 44.6895 71.0601C44.2495 72.3401 44.0295 73.96 44.0295 75.92C44.0295 78.08 44.4695 79.92 45.3495 81.44C46.2695 82.92 47.4295 84.06 48.8295 84.8601C50.2695 85.6201 51.7895 86 53.3895 86C54.8695 86 56.0495 85.88 56.9295 85.64C57.8095 85.4 58.5095 85.12 59.0295 84.8C59.5895 84.44 60.0895 84.1401 60.5295 83.9001C61.2495 83.5401 61.9295 83.3601 62.5695 83.3601C63.4495 83.3601 64.1695 83.66 64.7295 84.26C65.3295 84.86 65.6295 85.5601 65.6295 86.3601C65.6295 87.4401 65.0695 88.42 63.9495 89.3C62.9095 90.18 61.4495 90.96 59.5695 91.64C57.6895 92.28 55.7495 92.6 53.7495 92.6Z" fill="#E53935"/>
<path d="M28.6981 84.98C29.7381 84.98 30.5981 85.32 31.2781 86C31.9981 86.64 32.3581 87.48 32.3581 88.52C32.3581 89.52 31.9981 90.36 31.2781 91.04C30.5981 91.68 29.7381 92 28.6981 92H9.19809C8.15809 92 7.27809 91.66 6.55809 90.98C5.87809 90.26 5.53809 89.38 5.53809 88.34V53.66C5.53809 52.62 5.89809 51.76 6.61809 51.08C7.33809 50.36 8.25809 50 9.37809 50C10.3381 50 11.1781 50.36 11.8981 51.08C12.6581 51.76 13.0381 52.62 13.0381 53.66V86L11.7181 84.98H28.6981Z" fill="#E53935"/>
<path d="M254.09 62.96C254.09 61.8802 253.75 61.0003 253.07 60.3203C252.433 59.6828 251.637 59.3435 250.683 59.3037L250.49 59.2998C249.45 59.2998 248.59 59.66 247.91 60.3799C247.23 61.0599 246.89 61.92 246.89 62.96V63.666C246.413 63.1224 245.835 62.5859 245.15 62.0596C244.275 61.3595 243.247 60.7669 242.065 60.2812L241.55 60.0801C240.15 59.5601 238.61 59.2998 236.93 59.2998C234.17 59.2999 231.67 60.02 229.43 61.46C227.19 62.8599 225.41 64.8199 224.09 67.3398C222.77 69.8198 222.11 72.7005 222.11 75.9805L222.118 76.583C222.195 79.5784 222.852 82.2575 224.09 84.6201C225.41 87.1001 227.21 89.06 229.49 90.5L229.921 90.7539C232.091 91.9844 234.507 92.5996 237.17 92.5996C238.43 92.5996 239.629 92.4164 240.767 92.0488L241.25 91.8799C242.53 91.3599 243.63 90.7395 244.55 90.0195C245.51 89.2997 246.25 88.5802 246.77 87.8604C246.812 87.8032 246.851 87.7452 246.89 87.6895V90.6201C246.89 92.7401 246.169 94.3996 244.729 95.5996C243.29 96.7995 241.07 97.4003 238.07 97.4004L237.748 97.3926C236.983 97.3575 236.11 97.1999 235.13 96.9199C234.05 96.6399 233.05 96.32 232.13 95.96C231.21 95.6001 230.55 95.3603 230.15 95.2402C229.27 94.9202 228.43 94.9604 227.63 95.3604C226.83 95.8004 226.25 96.5999 225.89 97.7598C225.61 98.6397 225.69 99.4598 226.13 100.22C226.61 101.02 227.45 101.68 228.65 102.2C229.25 102.44 230.13 102.701 231.29 102.98C232.45 103.26 233.67 103.5 234.95 103.7C236.07 103.875 237.006 103.973 237.759 103.995L238.07 104C240.87 104 243.49 103.52 245.93 102.56C248.37 101.64 250.33 100.12 251.81 98C253.235 96.0501 253.992 93.485 254.081 90.3047L254.09 89.6602V62.96ZM243.19 75.9805C243.19 75.1571 243.091 74.4355 242.919 73.7969L242.89 73.8125V73.6836C242.816 73.4273 242.73 73.1844 242.632 72.9541L242.473 72.6084C242.073 71.8091 241.572 71.216 240.964 70.7637L240.697 70.5781C240.07 70.172 239.247 69.9004 238.07 69.9004C236.953 69.9004 236.145 70.1628 235.503 70.5781C234.773 71.0504 234.184 71.6951 233.728 72.6084C233.279 73.5046 233.01 74.6002 233.01 75.9805L233.022 76.4658C233.079 77.5726 233.33 78.4969 233.728 79.291C234.184 80.2044 234.773 80.849 235.503 81.3213C236.145 81.7367 236.953 82 238.07 82V86L237.735 85.9951C236.184 85.947 234.802 85.5617 233.588 84.8398L233.33 84.6797C232.055 83.8547 231.044 82.7488 230.296 81.3613L230.15 81.0801C229.438 79.655 229.059 78.0716 229.015 76.3301L229.01 75.9805C229.01 74.1805 229.344 72.5558 230.012 71.1074L230.15 70.8203C230.863 69.3954 231.838 68.2512 233.078 67.3887L233.33 67.2197C234.69 66.3398 236.27 65.9004 238.07 65.9004L238.412 65.9053C240.109 65.9568 241.595 66.3947 242.87 67.2197C244.23 68.0997 245.29 69.3003 246.05 70.8203C246.81 72.3403 247.19 74.0605 247.19 75.9805L247.186 76.3301C247.141 78.0716 246.762 79.655 246.05 81.0801C245.29 82.5999 244.23 83.7997 242.87 84.6797L242.612 84.8398C241.309 85.6133 239.795 85.9999 238.07 86V82C239.247 81.9999 240.07 81.7274 240.697 81.3213C241.427 80.849 242.016 80.2043 242.473 79.291C242.639 78.9588 242.778 78.6033 242.89 78.2217V77.4004L243.053 77.5225C243.14 77.0481 243.19 76.5364 243.19 75.9805ZM258.09 89.6602L258.079 90.4121C257.975 94.1227 257.087 97.5182 255.089 100.289C253.153 103.061 250.558 105.077 247.394 106.281L247.395 106.282C244.457 107.438 241.337 108 238.07 108C237.25 108 236.331 107.925 235.343 107.797L234.332 107.652C233.298 107.491 232.293 107.303 231.317 107.09L230.352 106.868C229.286 106.611 228.31 106.34 227.501 106.043L227.164 105.914L227.111 105.893L227.06 105.87C225.496 105.193 223.957 104.169 222.904 102.6L222.7 102.278L222.684 102.251L222.668 102.225C221.636 100.443 221.478 98.4573 222.069 96.5742C222.573 94.9518 223.504 93.3253 225.109 92.2227C223.262 90.6391 221.742 88.7218 220.559 86.499L220.547 86.4756C218.888 83.3079 218.11 79.7761 218.11 75.9805C218.11 72.1553 218.883 68.6094 220.559 65.4609C222.176 62.3817 224.414 59.8837 227.283 58.084C230.188 56.2208 233.439 55.2999 236.93 55.2998C239.026 55.2998 241.045 55.6253 242.942 56.3301C243.749 56.6297 244.523 56.9771 245.261 57.3721C246.701 55.9837 248.531 55.2998 250.49 55.2998C252.37 55.2999 254.165 55.9124 255.613 57.2207L255.898 57.4912L256.175 57.7822C257.505 59.26 258.09 61.0866 258.09 62.96V89.6602Z" fill="#F1F0F0"/>
<path d="M204.628 72.9805C204.628 72.0196 204.496 71.2928 204.308 70.748L204.278 70.6631L204.253 70.5762C204.193 70.3747 204.124 70.2628 204.033 70.1758L203.936 70.0947C204.006 70.146 203.707 69.9004 202.508 69.9004C201.459 69.9004 200.823 70.1041 200.435 70.3203C199.98 70.5964 199.661 70.9317 199.418 71.3604C199.214 71.7487 199.067 72.258 199.067 72.9805V88.3398C199.067 90.3447 198.375 92.224 196.956 93.7266L196.917 93.7676L196.876 93.8086C195.381 95.3035 193.473 96 191.468 96C189.588 96 187.794 95.3875 186.345 94.0791L186.06 93.8086L186.019 93.7676L185.979 93.7266C184.56 92.224 183.868 90.3447 183.868 88.3398V63.5596C183.868 61.5905 184.541 59.7168 185.98 58.2344L185.979 58.2334C187.457 56.6694 189.389 55.9004 191.468 55.9004C193.355 55.9004 195.12 56.5365 196.535 57.8242C197.559 57.165 198.661 56.632 199.829 56.2197C201.484 55.5921 203.229 55.2999 205.027 55.2998C208.441 55.2998 211.722 55.9994 214.235 58.0283H214.236C214.241 58.0321 214.246 58.0363 214.251 58.04C214.259 58.0469 214.268 58.0537 214.276 58.0605H214.275C216.514 59.8541 217.997 62.231 218.764 65.0117H218.766C219.491 67.4785 219.828 70.1471 219.828 72.9805V88.3398L219.819 88.7148C219.738 90.5786 219.046 92.318 217.716 93.7266L217.677 93.7676L217.636 93.8086C216.141 95.3034 214.233 96 212.228 96C210.347 95.9999 208.553 95.3875 207.104 94.0791L206.819 93.8086L206.739 93.7266C205.32 92.224 204.628 90.3446 204.628 88.3398V72.9805ZM187.868 88.3398L187.872 88.5332C187.912 89.4894 188.25 90.3055 188.888 90.9805C189.568 91.6603 190.428 92 191.468 92C192.508 92 193.368 91.6603 194.048 90.9805C194.728 90.2605 195.067 89.3798 195.067 88.3398V72.9805C195.067 71.6605 195.348 70.4804 195.908 69.4404C196.508 68.3605 197.348 67.5003 198.428 66.8604C199.548 66.2204 200.908 65.9004 202.508 65.9004L202.811 65.9033C204.304 65.9408 205.463 66.2603 206.288 66.8604C207.168 67.5003 207.768 68.3606 208.088 69.4404C208.448 70.4803 208.628 71.6606 208.628 72.9805V88.3398L208.632 88.5332C208.672 89.4894 209.01 90.3055 209.647 90.9805C210.327 91.6604 211.188 91.9999 212.228 92C213.202 92 214.019 91.701 214.678 91.1035L214.808 90.9805C215.445 90.3055 215.784 89.4894 215.824 88.5332L215.828 88.3398V72.9805C215.828 70.4605 215.528 68.1796 214.928 66.1396C214.403 64.1897 213.438 62.6091 212.034 61.3975L211.748 61.1602C210.228 59.9202 207.987 59.2998 205.027 59.2998C203.668 59.2999 202.408 59.5201 201.248 59.96C200.088 60.36 199.048 60.9001 198.128 61.5801C197.208 62.2601 196.408 62.9998 195.728 63.7998C195.487 64.0681 195.268 64.3315 195.067 64.5898V63.5596C195.067 62.5199 194.728 61.6603 194.048 60.9805C193.41 60.3056 192.615 59.9466 191.661 59.9043L191.468 59.9004C190.428 59.9004 189.568 60.2605 188.888 60.9805C188.208 61.6603 187.868 62.5199 187.868 63.5596V88.3398Z" fill="#F1F0F0"/>
<path d="M180.468 63.5596C180.468 62.5199 180.128 61.6603 179.448 60.9805C178.768 60.2605 177.908 59.9004 176.868 59.9004C175.828 59.9004 174.968 60.2605 174.288 60.9805C173.608 61.6603 173.269 62.5199 173.269 63.5596V88.3398L173.272 88.5332C173.312 89.4894 173.651 90.3055 174.288 90.9805C174.925 91.6177 175.721 91.9562 176.675 91.9961L176.868 92C177.843 92 178.66 91.7011 179.318 91.1035L179.448 90.9805C180.128 90.2605 180.468 89.3798 180.468 88.3398V63.5596ZM180.648 51.8604C180.648 50.7404 180.368 49.9595 179.808 49.5195C179.318 49.1347 178.506 48.9182 177.373 48.8701L176.868 48.8604C175.588 48.8604 174.628 49.0797 173.988 49.5195C173.388 49.9195 173.088 50.7004 173.088 51.8604V53L173.102 53.4043C173.163 54.3096 173.438 54.9549 173.928 55.3398C174.488 55.7798 175.448 55.9999 176.808 56C178.082 56 179.024 55.8241 179.631 55.4727L179.748 55.4004C180.273 55.0154 180.568 54.3543 180.634 53.418L180.648 53V51.8604ZM184.648 53L184.643 53.3271C184.591 54.8952 184.143 56.9119 182.463 58.3477C183.828 59.8118 184.468 61.6403 184.468 63.5596V88.3398C184.468 90.3446 183.775 92.224 182.356 93.7266L182.317 93.7676L182.276 93.8086C180.781 95.3035 178.874 96 176.868 96C174.988 96 173.194 95.3874 171.745 94.0791L171.46 93.8086L171.419 93.7676L171.38 93.7266C169.961 92.224 169.269 90.3447 169.269 88.3398V63.5596C169.269 61.6371 169.909 59.8052 171.279 58.3398C169.462 56.7955 169.088 54.5884 169.088 53V51.8604C169.088 50.2112 169.499 47.736 171.722 46.2236C173.335 45.1147 175.254 44.8604 176.868 44.8604C178.333 44.8604 180.33 45.0302 181.959 46.1396L182.279 46.375L182.46 46.5225C184.275 48.0667 184.648 50.2728 184.648 51.8604V53Z" fill="#F1F0F0"/>
<path d="M154.706 72.9805C154.706 72.0196 154.574 71.2928 154.386 70.748L154.356 70.6631L154.331 70.5762C154.271 70.3747 154.202 70.2628 154.111 70.1758L154.014 70.0947C154.084 70.146 153.785 69.9004 152.586 69.9004C151.537 69.9004 150.901 70.1041 150.513 70.3203C150.058 70.5964 149.739 70.9317 149.496 71.3604C149.292 71.7487 149.146 72.258 149.146 72.9805V88.3398C149.146 90.3447 148.453 92.224 147.034 93.7266L146.995 93.7676L146.954 93.8086C145.459 95.3035 143.551 96 141.546 96C139.666 96 137.872 95.3875 136.423 94.0791L136.138 93.8086L136.097 93.7676L136.058 93.7266C134.639 92.224 133.946 90.3447 133.946 88.3398V63.5596C133.946 61.5905 134.619 59.7168 136.059 58.2344L136.058 58.2334C137.535 56.6694 139.467 55.9004 141.546 55.9004C143.433 55.9004 145.198 56.5365 146.613 57.8242C147.637 57.165 148.739 56.632 149.907 56.2197C151.562 55.5921 153.308 55.2999 155.105 55.2998C158.519 55.2998 161.801 55.9994 164.313 58.0283H164.314C164.319 58.0321 164.324 58.0363 164.329 58.04C164.338 58.0469 164.346 58.0537 164.354 58.0605H164.354C166.593 59.8541 168.076 62.231 168.842 65.0117H168.844C169.569 67.4785 169.906 70.1471 169.906 72.9805V88.3398L169.897 88.7148C169.816 90.5786 169.124 92.318 167.794 93.7266L167.755 93.7676L167.714 93.8086C166.219 95.3034 164.311 96 162.306 96C160.426 95.9999 158.631 95.3875 157.183 94.0791L156.897 93.8086L156.817 93.7266C155.398 92.224 154.706 90.3446 154.706 88.3398V72.9805ZM137.946 88.3398L137.95 88.5332C137.99 89.4894 138.328 90.3055 138.966 90.9805C139.646 91.6603 140.506 92 141.546 92C142.586 92 143.446 91.6603 144.126 90.9805C144.806 90.2605 145.146 89.3798 145.146 88.3398V72.9805C145.146 71.6605 145.426 70.4804 145.986 69.4404C146.586 68.3605 147.426 67.5003 148.506 66.8604C149.626 66.2204 150.986 65.9004 152.586 65.9004L152.889 65.9033C154.382 65.9408 155.541 66.2603 156.366 66.8604C157.246 67.5003 157.846 68.3606 158.166 69.4404C158.526 70.4803 158.706 71.6606 158.706 72.9805V88.3398L158.71 88.5332C158.75 89.4894 159.088 90.3055 159.726 90.9805C160.406 91.6604 161.266 91.9999 162.306 92C163.346 92 164.206 91.6603 164.886 90.9805C165.523 90.3055 165.862 89.4894 165.902 88.5332L165.906 88.3398V72.9805C165.906 70.4605 165.606 68.1796 165.006 66.1396C164.481 64.1897 163.516 62.6091 162.112 61.3975L161.826 61.1602C160.306 59.9202 158.065 59.2998 155.105 59.2998C153.746 59.2999 152.486 59.5201 151.326 59.96C150.166 60.36 149.126 60.9001 148.206 61.5801C147.286 62.2601 146.486 62.9998 145.806 63.7998C145.566 64.0681 145.346 64.3315 145.146 64.5898V63.5596C145.145 62.5199 144.806 61.6603 144.126 60.9805C143.489 60.3056 142.693 59.9466 141.739 59.9043L141.546 59.9004C140.506 59.9004 139.646 60.2605 138.966 60.9805C138.286 61.6603 137.946 62.5199 137.946 63.5596V88.3398Z" fill="#F1F0F0"/>
<path d="M132.87 62.7197C132.87 61.7999 132.45 61.0002 131.61 60.3203C130.86 59.6828 129.935 59.3436 128.833 59.3037L128.61 59.2998C127.61 59.2998 126.61 59.4202 125.61 59.6602L125.238 59.7568C124.376 59.9975 123.56 60.3448 122.79 60.7998C121.91 61.2798 121.111 61.9002 120.391 62.6602C119.91 63.1688 119.49 63.7378 119.13 64.3662V63.5596C119.13 62.5199 118.79 61.6603 118.11 60.9805C117.473 60.3056 116.677 59.9466 115.724 59.9043L115.53 59.9004C114.49 59.9004 113.63 60.2605 112.95 60.9805C112.27 61.6603 111.931 62.5199 111.931 63.5596V88.3398L111.935 88.5332C111.974 89.4894 112.313 90.3055 112.95 90.9805C113.63 91.6603 114.49 92 115.53 92C116.57 92 117.43 91.6603 118.11 90.9805C118.79 90.2605 119.13 89.3798 119.13 88.3398V74.1201C119.13 72.6803 119.31 71.4403 119.67 70.4004C120.07 69.3205 120.57 68.4201 121.17 67.7002C121.81 66.9802 122.49 66.4597 123.21 66.1396C123.97 65.7796 124.711 65.5996 125.431 65.5996L125.726 65.6064C126.404 65.6371 127.005 65.7746 127.53 66.0195C128.09 66.2645 128.696 66.4029 129.348 66.4336L129.63 66.4404C130.33 66.4404 130.985 66.2257 131.593 65.7969L131.851 65.5996C132.53 64.9996 132.87 64.0395 132.87 62.7197ZM136.87 62.7197C136.87 64.654 136.37 66.9472 134.497 68.5996L134.445 68.6445L134.394 68.6875C133.075 69.7736 131.453 70.4404 129.63 70.4404C128.367 70.4404 127.115 70.2045 125.927 69.6846L125.883 69.665L125.839 69.6445C125.867 69.6577 125.765 69.5997 125.431 69.5996C125.394 69.5996 125.237 69.6062 124.923 69.7549L124.879 69.7754L124.835 69.7949C124.743 69.8358 124.525 69.9589 124.207 70.3057C123.97 70.6017 123.698 71.0549 123.44 71.7383C123.268 72.2504 123.13 73.0174 123.13 74.1201V88.3398C123.13 90.3447 122.438 92.224 121.019 93.7266L120.979 93.7676L120.938 93.8086C119.443 95.3035 117.536 96 115.53 96C113.65 96 111.856 95.3875 110.407 94.0791L110.122 93.8086L110.081 93.7676L110.042 93.7266C108.623 92.224 107.931 90.3447 107.931 88.3398V63.5596C107.931 61.5905 108.603 59.7168 110.043 58.2344L110.042 58.2334C111.519 56.6694 113.452 55.9004 115.53 55.9004C117.304 55.9004 118.969 56.4625 120.338 57.5986C120.495 57.5032 120.654 57.4104 120.815 57.3213C122.023 56.6154 123.314 56.0975 124.677 55.7705C125.974 55.4592 127.287 55.2998 128.61 55.2998C130.585 55.2998 132.515 55.8736 134.126 57.2109H134.127C134.139 57.2211 134.152 57.232 134.164 57.2422C134.176 57.2524 134.189 57.2622 134.201 57.2725H134.2C135.757 58.5615 136.87 60.4119 136.87 62.7197Z" fill="#F1F0F0"/>
<path d="M104.135 62.96C104.135 61.88 103.794 61.0003 103.114 60.3203C102.434 59.6403 101.574 59.2998 100.534 59.2998C99.4943 59.2999 98.634 59.66 97.9541 60.3799C97.2742 61.0599 96.9346 61.92 96.9346 62.96V63.0596C96.5781 62.7235 96.1789 62.3889 95.7344 62.0596C94.8244 61.3596 93.7612 60.7668 92.5449 60.2812L92.0146 60.0801C90.5746 59.5601 88.9944 59.2998 87.2744 59.2998C84.5944 59.2998 82.1541 60.02 79.9541 61.46C77.7543 62.8599 75.9947 64.8201 74.6748 67.3398C73.3948 69.8198 72.7549 72.7005 72.7549 75.9805L72.7617 76.583C72.8367 79.5784 73.4748 82.2575 74.6748 84.6201C75.9948 87.1 77.7747 89.06 80.0146 90.5C82.1146 91.8124 84.443 92.5098 87 92.5918L87.5146 92.5996C88.8445 92.5996 90.0824 92.4162 91.2285 92.0488L91.7148 91.8799C93.0347 91.3599 94.1748 90.7395 95.1348 90.0195C95.8446 89.4871 96.4444 88.9543 96.9355 88.4219C96.953 89.4263 97.292 90.2794 97.9541 90.9805C98.634 91.6604 99.4943 91.9999 100.534 92C101.509 92 102.327 91.7013 102.985 91.1035L103.114 90.9805C103.752 90.3055 104.091 89.4894 104.131 88.5332L104.135 88.3398V62.96ZM93.2344 75.9805C93.2344 74.6002 92.9647 73.5046 92.5166 72.6084L92.4795 72.5322C92.0504 71.6264 91.4955 71.0012 90.8154 70.5479C90.2235 70.1533 89.4739 69.9004 88.4141 69.9004C87.4145 69.9005 86.6805 70.143 86.0732 70.5479C85.3835 71.0077 84.8012 71.6476 84.333 72.5693C83.9104 73.4764 83.6543 74.5876 83.6543 75.9805L83.666 76.4775C83.7203 77.5936 83.9591 78.5284 84.332 79.3291C84.8004 80.2517 85.3832 80.8915 86.0732 81.3516C86.6805 81.7564 87.4145 81.9999 88.4141 82V86L88.0947 85.9951C86.5055 85.9436 85.0921 85.5048 83.8545 84.6797C82.5346 83.7997 81.4943 82.6 80.7344 81.0801C80.0593 79.655 79.7013 78.0716 79.6592 76.3301L79.6543 75.9805C79.6543 74.0606 80.0145 72.3402 80.7344 70.8203C81.4944 69.3003 82.5345 68.0997 83.8545 67.2197C85.1744 66.3399 86.6943 65.9005 88.4141 65.9004L88.7422 65.9053C90.3661 65.9569 91.7968 66.3949 93.0342 67.2197C94.3542 68.0997 95.3747 69.3003 96.0947 70.8203C96.8546 72.3402 97.2344 74.0606 97.2344 75.9805L97.2305 76.3301C97.186 78.0716 96.8073 79.655 96.0947 81.0801C95.3747 82.6001 94.3542 83.7997 93.0342 84.6797C91.7142 85.5597 90.174 86 88.4141 86V82C89.4741 82 90.2234 81.7462 90.8154 81.3516C91.4955 80.8982 92.0504 80.2731 92.4795 79.3672L92.5166 79.291C92.9704 78.3835 93.2343 77.3062 93.2344 75.9805ZM108.135 88.3398L108.126 88.7148C108.045 90.5786 107.353 92.318 106.022 93.7266L105.983 93.7676L105.943 93.8086C104.448 95.3036 102.54 96 100.534 96C98.8022 95.9999 97.1441 95.4789 95.7607 94.374C94.9469 94.8361 94.0852 95.2452 93.1807 95.6016L93.1494 95.6133L93.1191 95.625C91.3426 96.2912 89.4608 96.5996 87.5146 96.5996C84.2575 96.5996 81.2057 95.8157 78.4434 94.2217L77.8945 93.8916L77.873 93.8789L77.8516 93.8643C75.1821 92.1482 73.0487 89.8569 71.4551 87.0645L71.1436 86.499L71.126 86.4658L71.1084 86.4316C69.5042 83.2734 68.7549 79.7573 68.7549 75.9805C68.7549 72.174 69.5002 68.6446 71.1201 65.5059L71.126 65.4951L71.1309 65.4844C72.745 62.4028 74.9638 59.8941 77.8066 58.085C80.66 56.2288 83.8493 55.2998 87.2744 55.2998C89.4009 55.2998 91.4471 55.6219 93.373 56.3174C94.1004 56.58 94.8019 56.8802 95.4756 57.2158C96.889 55.9336 98.6508 55.2999 100.534 55.2998C102.414 55.2998 104.209 55.9122 105.658 57.2207L105.943 57.4912C107.469 59.0165 108.135 60.9617 108.135 62.96V88.3398Z" fill="#F1F0F0"/>
<path d="M65.6299 86.3604C65.6299 85.5604 65.3295 84.8598 64.7295 84.2598C64.1695 83.6598 63.4493 83.3604 62.5693 83.3604C61.9294 83.3604 61.2492 83.5404 60.5293 83.9004C60.0894 84.1404 59.5892 84.4399 59.0293 84.7998C58.5094 85.1198 57.8095 85.3997 56.9297 85.6396L56.585 85.7246C55.7494 85.9083 54.6843 86 53.3896 86L53.0908 85.9951C51.6001 85.9506 50.1792 85.5729 48.8291 84.8604C47.4293 84.0604 46.2695 82.9202 45.3496 81.4404C44.8343 80.5504 44.4714 79.5499 44.2578 78.4404H64.0693L64.4238 78.4258C65.1212 78.3695 65.751 78.1446 66.3135 77.751L66.5898 77.54C67.3097 76.9401 67.6895 76.16 67.7295 75.2002C67.7295 73.0403 67.3097 71 66.4697 69.0801C65.6698 67.1602 64.5698 65.48 63.1699 64.04C61.8576 62.6527 60.3514 61.5467 58.6523 60.7217L58.3096 60.5596C56.6221 59.7721 54.829 59.3539 52.9307 59.3047L52.5498 59.2998C49.9099 59.2998 47.4097 59.98 45.0498 61.3398L44.6123 61.6016C42.4512 62.9469 40.6766 64.8196 39.2891 67.2197C37.8491 69.7397 37.1299 72.8004 37.1299 76.4004C37.1299 79.4801 37.7895 82.2399 39.1094 84.6797C40.4693 87.1196 42.3893 89.06 44.8691 90.5C47.389 91.8999 50.3492 92.5995 53.749 92.5996C55.749 92.5996 57.6893 92.2796 59.5693 91.6396C61.4493 90.9597 62.9092 90.1798 63.9492 89.2998C64.9992 88.4749 65.5574 87.5622 65.623 86.5615L65.6299 86.3604ZM53.0107 65.9131C54.0782 65.9743 55.0843 66.2503 56.0293 66.7402L56.4404 66.9443C57.3766 67.4431 58.1591 68.0955 58.7891 68.9004C59.549 69.8203 59.9697 70.8597 60.0498 72.0195V72.4404H44.3281C44.4255 71.9434 44.5441 71.4824 44.6895 71.0596C45.0745 69.9397 45.5819 69.0187 46.2119 68.2969L46.4893 68C47.2493 67.24 48.1495 66.6999 49.1895 66.3799C50.2295 66.0599 51.3498 65.9004 52.5498 65.9004L53.0107 65.9131ZM69.6299 86.3604C69.6298 88.9843 68.2279 90.9879 66.5205 92.3633C64.9927 93.6526 63.061 94.6305 60.9297 95.4014L60.8945 95.4141L60.8584 95.4268C58.5604 96.209 56.1843 96.5996 53.749 96.5996C50.0391 96.5995 46.597 95.8809 43.5342 94.3203L42.9268 93.9971L42.8936 93.9785L42.8613 93.959C39.7767 92.1679 37.3351 89.7126 35.6152 86.627L35.6035 86.6055L35.5918 86.583C33.9219 83.4963 33.1299 80.0702 33.1299 76.4004L33.1396 75.6299C33.1987 73.3162 33.5271 71.1184 34.1621 69.0684L33.9736 68.4404H34.3672C34.7533 67.324 35.2344 66.2539 35.8164 65.2354L35.8262 65.2178C37.6267 62.1033 40.0325 59.6145 43.0527 57.874C45.9999 56.1758 49.186 55.2998 52.5498 55.2998C55.1464 55.2998 57.6347 55.8367 59.9697 56.9209C62.2814 57.9762 64.3241 59.4399 66.0752 61.291H66.0742C67.8197 63.0962 69.1825 65.1909 70.1621 67.542H70.1611C70.29 67.8395 70.4116 68.1387 70.5244 68.4404H71.7158L70.8096 69.2627C71.4239 71.1687 71.7295 73.1535 71.7295 75.2002V75.2832L71.7256 75.3662C71.6399 77.4219 70.7622 79.2701 69.1504 80.6133C68.6933 80.9942 68.2068 81.315 67.6973 81.5771C68.9118 82.8571 69.6299 84.5008 69.6299 86.3604Z" fill="#F1F0F0"/>
<path d="M13.0381 53.6602C13.0381 52.6203 12.6583 51.76 11.8984 51.0801C11.1784 50.3601 10.3379 50 9.37793 50C8.258 50 7.33813 50.3601 6.61816 51.0801C5.89816 51.7601 5.53809 52.6202 5.53809 53.6602V88.3398C5.53809 89.3798 5.87762 90.2605 6.55762 90.9805C7.2326 91.618 8.04867 91.9562 9.00488 91.9961L9.19824 92H28.6982L28.8906 91.9961C29.7811 91.9612 30.5337 91.6813 31.1484 91.1562L31.2783 91.04C31.9531 90.4027 32.3112 89.6246 32.3535 88.7061L32.3584 88.5195C32.3583 87.4798 31.9981 86.6399 31.2783 86C30.6407 85.3624 29.8447 85.0242 28.8906 84.9844L28.6982 84.9805V80.9805C30.6772 80.9805 32.5599 81.6597 34.0459 83.1143C35.6163 84.5673 36.3583 86.4874 36.3584 88.5195L36.3486 88.9092C36.2547 90.8435 35.4578 92.5945 34.0244 93.9482L34.0195 93.9531C32.5109 95.3729 30.6314 96 28.6982 96H9.19824C7.19339 96 5.31411 95.3068 3.81152 93.8877L3.72852 93.8096L3.65039 93.7266C2.23128 92.224 1.53809 90.3447 1.53809 88.3398V82.1689L0 80.9805H1.53809V53.6602C1.53809 51.6026 2.29289 49.6891 3.8252 48.2178C5.36858 46.6932 7.32903 46 9.37793 46L9.7666 46.0098C11.6512 46.104 13.3142 46.8849 14.6309 48.1611C16.1138 49.5185 16.9309 51.2949 17.0283 53.2588L17.0381 53.6602V80.9805H28.6982V84.9805H13.0381V53.6602Z" fill="#F1F0F0"/>
</svg>
