<svg width="122" height="122" viewBox="0 0 122 122" fill="none" xmlns="http://www.w3.org/2000/svg">
<path d="M50.5592 13.3743C49.9513 13.4894 49.3651 13.4322 48.8005 13.2026C48.2379 12.9835 47.7543 12.6083 47.3496 12.077C46.945 11.5457 46.6652 10.8713 46.5104 10.0539C46.3575 9.24691 46.3294 8.41087 46.426 7.54575C46.5207 6.67016 46.7176 5.81862 47.0168 4.99113C47.314 4.15316 47.7005 3.38513 48.1762 2.68705C48.6499 1.97849 49.1851 1.39398 49.7818 0.933519C50.387 0.460596 51.0407 0.157619 51.7429 0.0245878C51.8477 0.00473243 52.0036 -0.00309785 52.2107 0.00109789C52.4283 0.00330798 52.6565 0.0903528 52.8953 0.262232C52.8304 0.263665 52.7561 0.272324 52.6722 0.288208C52.5969 0.291627 52.5173 0.301278 52.4334 0.317163C51.8885 0.420411 51.371 0.697576 50.8811 1.14866C50.3892 1.58926 49.9463 2.14542 49.5524 2.81714C49.1586 3.48886 48.832 4.22925 48.5728 5.03832C48.322 5.83492 48.1558 6.64807 48.0742 7.47777C47.9925 8.30747 48.0222 9.09437 48.1631 9.83847C48.2664 10.3834 48.4361 10.8778 48.6721 11.3216C48.9082 11.7655 49.2155 12.0981 49.594 12.3195C49.9745 12.5514 50.432 12.6167 50.9664 12.5154C51.5429 12.4062 52.0498 12.131 52.4874 11.6899C52.9249 11.2487 53.2934 10.7012 53.5929 10.0474C53.8905 9.38306 54.1185 8.66677 54.2769 7.89852C54.4333 7.11979 54.5187 6.33824 54.5329 5.55388C54.5452 4.75904 54.4858 4.01577 54.3547 3.32408C54.2972 3.02015 54.2147 2.69923 54.1072 2.36133C53.9978 2.01294 53.8668 1.72291 53.7144 1.49124C53.5724 1.25759 53.4071 1.15863 53.2185 1.19437C53.0403 1.22812 52.8682 1.38014 52.7023 1.65041C52.5344 1.91021 52.3837 2.2319 52.2501 2.61547C52.1165 2.99904 52.0078 3.3996 51.924 3.81716C51.8488 4.22224 51.8085 4.58271 51.8032 4.89855C51.433 4.89269 51.1544 4.82606 50.9674 4.69864C50.7909 4.56923 50.6818 4.39448 50.6401 4.1744C50.5865 3.89143 50.6265 3.55816 50.7601 3.17459C50.8937 2.79102 51.0879 2.41224 51.3428 2.03827C51.6061 1.65183 51.8908 1.32105 52.197 1.04592C52.5136 0.768807 52.8239 0.601459 53.1278 0.543879C53.4422 0.484312 53.7156 0.551941 53.9479 0.746766C54.1887 0.929126 54.3953 1.18854 54.5676 1.52502C54.7399 1.86149 54.8857 2.23012 55.0051 2.6309C55.1225 3.02121 55.2139 3.38929 55.2794 3.73514C55.4819 4.80412 55.5366 5.80884 55.4434 6.7493C55.3481 7.67928 55.1397 8.52757 54.8181 9.29416C54.507 10.0588 54.1184 10.7295 53.6523 11.3063C53.1967 11.8812 52.6983 12.3447 52.157 12.697C51.6263 13.0472 51.0937 13.273 50.5592 13.3743Z" fill="#5E3100"/>
<path d="M34.9476 19.4968C34.7975 19.0613 34.795 18.6936 34.9404 18.3938C35.0901 18.1036 35.3364 17.8458 35.6793 17.6204C36.0222 17.3951 36.4075 17.1857 36.8351 16.9922C36.843 16.5438 36.8082 16.0269 36.7306 15.4414C36.6585 14.8419 36.5612 14.2127 36.4387 13.554C36.3261 12.8908 36.1993 12.2223 36.0583 11.5485C35.9227 10.8605 35.7884 10.2013 35.6554 9.57077C35.5179 8.9305 35.3998 8.34589 35.301 7.81693C35.2022 7.28796 35.1359 6.8438 35.1021 6.48445C34.6109 6.71839 34.1775 6.93786 33.8019 7.14288C33.4361 7.34349 33.0941 7.54504 32.7759 7.7475C32.4578 7.94997 32.1343 8.16655 31.8055 8.39725C31.6926 7.86297 31.8404 7.37461 32.2491 6.93219C32.6577 6.48977 33.382 6.03335 34.4218 5.56293C34.9369 5.32992 35.4802 5.10755 36.0518 4.89583C36.6233 4.68411 37.1533 4.49703 37.6418 4.33459C38.1302 4.17215 38.5145 4.05102 38.7945 3.97119C38.6047 4.43166 38.3817 4.76672 38.1253 4.97636C37.8645 5.17628 37.6272 5.3246 37.4134 5.42132C37.0927 5.56641 36.806 5.6961 36.5533 5.81041C36.3103 5.92032 36.0744 6.03289 35.8456 6.14812C35.927 6.50933 36.0317 6.94782 36.1597 7.46359C36.2974 7.97497 36.4359 8.52696 36.5752 9.11955C36.7242 9.70775 36.8732 10.296 37.0222 10.8842C37.1712 11.4724 37.3049 12.0265 37.4231 12.5467C37.5369 13.0572 37.6253 13.4855 37.6883 13.8316C37.7905 14.3941 37.8487 14.9239 37.8628 15.421C37.877 15.918 37.8206 16.324 37.6938 16.6389C38.2265 16.4447 38.7684 16.2581 39.3196 16.079C39.8708 15.8999 40.4666 15.6772 41.1071 15.4109C40.881 15.9463 40.6128 16.3369 40.3025 16.5827C39.9966 16.8381 39.7319 17.0164 39.5084 17.1175C38.8573 17.4121 38.313 17.6583 37.8757 17.8561C37.4525 18.0593 37.0827 18.2383 36.7664 18.3931C36.4545 18.5576 36.1567 18.7274 35.873 18.9026C35.599 19.0734 35.2906 19.2714 34.9476 19.4968Z" fill="#5E3100"/>
<path d="M29.2974 24.495C28.9977 24.7517 28.6094 24.9789 28.1327 25.1766C27.6559 25.3742 27.1462 25.558 26.6035 25.7279C26.0689 25.8908 25.5494 26.0549 25.0449 26.2201C25.0297 26.6123 24.9567 26.9698 24.8258 27.2925C24.695 27.6153 24.4959 27.8911 24.2285 28.1201C23.945 28.363 23.6464 28.5063 23.3329 28.5502C23.0181 28.609 22.7318 28.5945 22.4738 28.5064C22.2078 28.4254 22.0123 28.3119 21.8874 28.1661C21.7486 28.004 21.7001 27.7998 21.7418 27.5534C21.7836 27.307 21.9908 27.0242 22.3635 26.705C22.5822 26.5177 22.842 26.3373 23.1429 26.1639C23.4449 25.9754 23.7649 25.7997 24.1028 25.6367C24.0116 25.153 23.8556 24.6265 23.6348 24.0572C23.4222 23.481 23.1881 22.8879 22.9327 22.2781C22.6703 21.6602 22.4183 21.0544 22.1767 20.4608C21.6537 20.67 21.1787 20.7468 20.7518 20.6911C20.318 20.6273 19.9935 20.4698 19.7784 20.2187C19.6396 20.0566 19.5448 19.864 19.494 19.6407C19.4363 19.4092 19.4392 19.175 19.503 18.9378C19.5598 18.6925 19.6935 18.4797 19.9041 18.2993C19.9098 18.5191 19.9658 18.7239 20.0722 18.9137C20.1867 19.0966 20.2855 19.2366 20.3688 19.3338C20.5978 19.6012 20.8528 19.776 21.1339 19.8582C21.415 19.9405 21.6898 19.9579 21.9582 19.9106C21.7167 19.317 21.5005 18.7367 21.3099 18.1697C21.1203 17.5877 20.9921 17.0444 20.9252 16.54C20.8595 16.0205 20.873 15.5525 20.9657 15.136C21.0665 14.7126 21.283 14.3587 21.6151 14.0742C21.8015 13.9146 22.0306 13.7886 22.3025 13.6961C22.5756 13.5886 22.8649 13.5656 23.1703 13.627C23.4838 13.6815 23.7897 13.8829 24.0881 14.2313C24.324 14.5068 24.5165 14.8545 24.6656 15.2745C24.8228 15.6876 24.9007 16.1476 24.8993 16.6543C24.8911 17.1529 24.7717 17.6695 24.5412 18.2039C24.312 18.7233 23.9248 19.2305 23.3796 19.7255C23.3634 19.7393 23.3432 19.7567 23.3189 19.7775C23.3027 19.7914 23.2865 19.8052 23.2703 19.8191C23.5188 20.4208 23.7627 21.0335 24.0019 21.6572C24.2412 22.2809 24.4509 22.8948 24.6312 23.4988C24.8114 24.1028 24.9339 24.6721 24.9984 25.2066C25.3907 25.0251 25.8258 24.828 26.3037 24.6153C26.7897 24.3957 27.2578 24.1633 27.708 23.9182C28.1593 23.6581 28.5308 23.4031 28.8224 23.1533C29.0168 22.9868 29.1777 22.8139 29.3051 22.6346C29.4336 22.4403 29.5528 22.2188 29.6628 21.9701C29.8894 22.5625 29.9644 23.06 29.8879 23.4626C29.8264 23.8664 29.6296 24.2105 29.2974 24.495ZM23.7219 27.7746C23.9325 27.5942 24.061 27.3998 24.1074 27.1916C24.1607 26.9915 24.1932 26.767 24.2048 26.5183C23.8774 26.6443 23.58 26.7726 23.3127 26.9032C23.0384 27.0258 22.8203 27.1564 22.6583 27.2952C22.5043 27.427 22.4192 27.549 22.403 27.6613C22.3787 27.7804 22.4012 27.8805 22.4706 27.9615C22.5816 28.0911 22.7632 28.1392 23.0154 28.1058C23.2677 28.0723 23.5032 27.9619 23.7219 27.7746ZM23.0605 19.3036C23.3961 18.974 23.6149 18.59 23.7169 18.1515C23.8189 17.7131 23.8457 17.2688 23.7973 16.8187C23.7489 16.3687 23.6484 15.9562 23.4958 15.5813C23.3444 15.1913 23.175 14.887 22.9876 14.6682C22.8072 14.4576 22.6453 14.3505 22.5018 14.347C22.3514 14.3353 22.2236 14.3746 22.1183 14.4648C21.8833 14.6661 21.7889 15.0067 21.835 15.4869C21.8811 15.9671 22.0185 16.5375 22.2474 17.1982C22.4774 17.8439 22.7484 18.5457 23.0605 19.3036Z" fill="#5E3100"/>
<path d="M17.9908 38.8866C17.6659 39.4131 17.2283 39.8074 16.678 40.0694C16.1368 40.3371 15.5336 40.4412 14.8685 40.3817C14.2033 40.3222 13.5167 40.074 12.8086 39.6371C12.1096 39.2057 11.4734 38.6627 10.8997 38.0079C10.3171 37.3476 9.82109 36.6279 9.41184 35.8489C8.99352 35.0644 8.68703 34.2611 8.49237 33.4391C8.28864 32.6114 8.21797 31.822 8.28038 31.0709C8.33932 30.3051 8.55643 29.6181 8.93173 29.0099C8.98775 28.9191 9.08712 28.7987 9.22986 28.6486C9.3782 28.4895 9.59636 28.3797 9.88434 28.3193C9.84165 28.3681 9.7979 28.4289 9.75309 28.5015C9.7048 28.5594 9.65825 28.6247 9.61344 28.6973C9.32216 29.1694 9.17787 29.7384 9.18055 30.4043C9.17415 31.0647 9.28615 31.7668 9.51655 32.5106C9.74694 33.2544 10.0734 33.9948 10.496 34.7318C10.9151 35.4542 11.4034 36.1253 11.961 36.7451C12.5186 37.3649 13.1196 37.8737 13.7641 38.2714C14.2362 38.5627 14.7156 38.7708 15.2026 38.8958C15.6895 39.0207 16.1423 39.0182 16.561 38.888C16.9888 38.7634 17.3456 38.4697 17.6313 38.0067C17.9393 37.5074 18.078 36.9475 18.0473 36.327C18.0167 35.7064 17.8609 35.0651 17.5801 34.403C17.2902 33.7352 16.9151 33.0839 16.4546 32.4488C15.9851 31.8081 15.4656 31.2181 14.896 30.6786C14.3174 30.1335 13.7285 29.6761 13.1294 29.3064C12.8661 29.144 12.5735 28.9885 12.2516 28.84C11.9205 28.6858 11.6181 28.5869 11.3442 28.5433C11.0759 28.4905 10.8914 28.5459 10.7905 28.7093C10.6953 28.8636 10.6916 29.0931 10.7792 29.3979C10.8578 29.6971 10.9937 30.0253 11.1868 30.3827C11.38 30.74 11.6024 31.0903 11.8543 31.4338C12.1027 31.7625 12.3417 32.0353 12.5713 32.2522C12.3173 32.5217 12.0802 32.6824 11.86 32.7346C11.6455 32.7776 11.4428 32.7404 11.2522 32.6227C11.0071 32.4715 10.788 32.2172 10.5949 31.8599C10.4018 31.5026 10.253 31.1037 10.1488 30.6634C10.041 30.2083 9.98878 29.775 9.99207 29.3634C10.001 28.9427 10.0866 28.6008 10.2491 28.3375C10.4171 28.0652 10.6514 27.909 10.9519 27.8688C11.249 27.814 11.5799 27.8364 11.9445 27.936C12.3092 28.0357 12.6797 28.1766 13.0561 28.3588C13.4235 28.5353 13.7569 28.716 14.0565 28.9009C14.9824 29.4722 15.7611 30.1094 16.3927 30.8125C17.0152 31.5099 17.501 32.2359 17.8502 32.9903C18.2049 33.7357 18.4381 34.4749 18.5497 35.2081C18.667 35.9322 18.6731 36.6128 18.5682 37.25C18.4689 37.8781 18.2764 38.4236 17.9908 38.8866Z" fill="#5E3100"/>
<path d="M13.4389 52.0931C13.2551 52.6294 13.0268 52.9557 12.754 53.072C12.4839 53.178 12.1785 53.1867 11.8378 53.0979C11.4559 52.9984 11.0141 52.8117 10.5123 52.5377C10.0105 52.2636 9.48331 51.9389 8.93077 51.5635C8.37823 51.1881 7.83623 50.7934 7.30477 50.3794C7.28552 50.4956 7.25394 50.6803 7.21005 50.9334C7.16885 51.1762 7.13012 51.4306 7.09386 51.6967C7.04997 51.9498 7.02334 52.1579 7.01397 52.3208C6.70205 52.2064 6.48524 52.0232 6.36354 51.771C6.23421 51.5059 6.17128 51.1974 6.17475 50.8455C6.18091 50.4834 6.22992 50.1049 6.32178 49.7099C5.6485 49.248 4.99721 48.7862 4.3679 48.3246C3.73096 47.8501 3.15596 47.3916 2.64289 46.9494C2.61643 47.0086 2.59245 47.0795 2.57094 47.1621C2.5391 47.242 2.50436 47.3542 2.46672 47.4987C2.30269 48.1283 2.24205 48.6361 2.28482 49.022C2.33027 49.3976 2.45938 49.6848 2.67216 49.8835C2.88762 50.0719 3.17599 50.2132 3.53727 50.3073C3.79532 50.3745 4.03945 50.4105 4.26966 50.4154C4.48955 50.4176 4.73681 50.3993 5.01143 50.3606C4.80247 50.8242 4.55756 51.1297 4.27669 51.277C3.9855 51.4216 3.66443 51.4482 3.31347 51.3568C2.77672 51.2169 2.35299 50.8971 2.04229 50.3973C1.73427 49.8872 1.54895 49.2657 1.48632 48.5329C1.42639 47.7898 1.50667 46.9951 1.72717 46.1486C1.86968 45.6016 2.04833 45.0639 2.2631 44.5357C2.47787 44.0074 2.6471 43.5059 2.7708 43.031C2.83802 42.773 2.88707 42.5212 2.91795 42.2758C2.93851 42.0276 2.94784 41.7379 2.94593 41.4067C3.36393 42.0447 3.62415 42.5479 3.72659 42.9163C3.83172 43.2744 3.8453 43.6031 3.76732 43.9024C3.70278 44.1501 3.58846 44.4621 3.42434 44.8382C3.2499 45.2116 3.08804 45.6214 2.93876 46.0675C3.23412 46.2877 3.57839 46.5317 3.97159 46.7995C4.36478 47.0672 4.7876 47.3482 5.24004 47.6425C5.69517 47.9264 6.16444 48.2195 6.64784 48.5218C6.82896 47.9958 7.00179 47.5227 7.16634 47.1026C7.33089 46.6825 7.49206 46.212 7.64984 45.6909C7.78272 45.8578 7.8833 46.0218 7.95157 46.1829C8.0122 46.3309 8.03492 46.5187 8.01974 46.7463C8.00725 46.9635 7.96293 47.2605 7.88677 47.6375C7.8133 48.0042 7.70509 48.483 7.56214 49.0741C7.85029 49.2373 8.14226 49.4071 8.43805 49.5833C8.73383 49.7596 8.98586 49.9134 9.19412 50.0448C9.40508 50.1659 9.53367 50.2435 9.5799 50.2776C10.4955 50.8248 11.2534 51.2371 11.8535 51.5147C12.4459 51.7793 12.9744 51.9721 13.4389 52.0931Z" fill="#5E3100"/>
<path d="M12.9523 64.9845C12.9652 65.5711 12.8567 65.9789 12.627 66.208C12.408 66.4368 12.1173 66.5605 11.755 66.5791C11.4457 66.5859 11.0765 66.5353 10.6474 66.4274C10.2073 66.309 9.78863 66.1901 9.39125 66.0708C8.62849 65.8315 7.87616 65.5812 7.13426 65.3201C6.39236 65.059 5.67712 64.7972 4.98854 64.5349C4.29973 64.2619 3.64326 64.0043 3.01913 63.7619C2.39477 63.5088 1.81886 63.2761 1.29141 63.0636C1.31797 63.7885 1.35309 64.4172 1.39677 64.9497C1.44021 65.4716 1.49339 65.9505 1.55629 66.3866C1.60853 66.8229 1.68245 67.2747 1.77804 67.742C1.32898 67.6985 0.983173 67.4981 0.740616 67.1406C0.487161 66.7728 0.305667 66.2806 0.196134 65.6642C0.0866007 65.0478 0.0230694 64.3397 0.00554001 63.5399C-0.00357526 63.124 -0.00144213 62.7345 0.0119392 62.3714C0.0144234 61.998 0.0280386 61.6456 0.052785 61.3143C0.0772984 60.9723 0.102046 60.6411 0.127027 60.3204C0.176286 59.6472 0.207256 59.113 0.219936 58.718C0.232384 58.3123 0.236738 58.0241 0.232998 57.8535C0.538605 58.1669 0.7661 58.5673 0.915485 59.0549C1.05397 59.5319 1.14505 60.0367 1.18873 60.5692C1.23241 61.1017 1.25951 61.6079 1.27003 62.0878C2.53961 62.5721 3.85625 63.0127 5.21994 63.4096C6.58363 63.8065 7.93062 64.1717 9.26092 64.5053C9.77583 64.6327 10.2156 64.7404 10.5803 64.8285C10.9341 64.9061 11.2608 64.9629 11.5603 64.999C11.8492 65.0354 12.1589 65.0499 12.4895 65.0427C12.5428 65.0415 12.6014 65.0402 12.6654 65.0388C12.7398 65.0265 12.8355 65.0084 12.9523 64.9845Z" fill="#5E3100"/>
<path d="M15.6123 74.6991C15.6913 74.9426 15.6501 75.2644 15.4884 75.6645C15.3268 76.0647 15.0889 76.5064 14.7748 76.9897C14.4574 77.4629 14.0995 77.9492 13.7009 78.4487C13.289 78.9414 12.872 79.4188 12.4502 79.8811C12.0283 80.3433 11.6423 80.7434 11.2923 81.0814C12.3146 81.0522 13.3235 81.0162 14.3189 80.9733C15.3009 80.9236 16.2136 80.8851 17.0571 80.8579C17.1527 81.1522 17.1621 81.4575 17.0854 81.774C17.0055 82.0803 16.8336 82.2763 16.5698 82.362C16.4582 82.3982 16.3181 82.4157 16.1495 82.4144C15.9808 82.4131 15.8189 82.4152 15.6637 82.4207C14.6855 82.4131 13.8136 82.4047 13.048 82.3954C12.2722 82.3893 11.5622 82.3788 10.918 82.3637C10.2604 82.3417 9.61297 82.3164 8.97565 82.2879C8.3249 82.2525 7.6422 82.205 6.92754 82.1455C6.21289 82.086 5.40389 82.0122 4.50056 81.9243C4.7102 82.2936 4.93039 82.609 5.16111 82.8705C5.38853 83.1219 5.58427 83.3275 5.74832 83.4873C5.90907 83.637 6.00098 83.7473 6.02404 83.8183C6.04051 83.869 6.03478 83.955 6.00686 84.0762C5.96878 84.2008 5.91727 84.3184 5.85232 84.4292C5.77393 84.5332 5.69923 84.5967 5.62821 84.6198C5.42437 84.3719 5.19556 84.0818 4.94178 83.7492C4.6847 83.4065 4.43638 83.0217 4.19682 82.5949C3.94712 82.1713 3.7432 81.716 3.58507 81.229C3.43682 80.7725 3.33942 80.2826 3.29288 79.7594C3.2362 79.2395 3.25699 78.7337 3.35526 78.242C3.45352 77.7502 3.64916 77.3166 3.94217 76.9411C4.23518 76.5656 4.64546 76.2921 5.173 76.1208C5.64983 75.966 6.10037 75.9374 6.52463 76.0352C6.93875 76.1362 7.32521 76.3247 7.684 76.6008C8.04279 76.8768 8.36746 77.2031 8.658 77.5798C8.94855 77.9565 9.21031 78.3481 9.44327 78.7547C9.6661 79.1646 9.85367 79.5523 10.006 79.9178C10.155 80.2731 10.2742 80.5709 10.3634 80.8111C10.7754 80.3184 11.1738 79.8358 11.5586 79.3631C11.9434 78.8905 12.3217 78.3976 12.6934 77.8843C13.0516 77.3643 13.3968 76.7868 13.7289 76.1518C14.0509 75.5201 14.355 74.799 14.6413 73.9882C14.8573 73.9629 15.0608 74.037 15.2518 74.2105C15.4394 74.3739 15.5596 74.5368 15.6123 74.6991ZM9.96121 81.1267C9.73613 80.5718 9.46363 80.0434 9.1437 79.5417C8.82047 79.0298 8.45956 78.5919 8.06098 78.2279C7.6591 77.8537 7.22764 77.5957 6.76662 77.4538C6.29215 77.3051 5.79621 77.3147 5.27881 77.4827C4.75126 77.6541 4.38321 77.9194 4.17466 78.2787C3.95596 78.6413 3.8482 79.052 3.85139 79.5108C3.85458 79.9695 3.92522 80.4288 4.06333 80.8887C4.85507 81.0129 5.76525 81.0874 6.79389 81.1122C7.81237 81.1404 8.86815 81.1452 9.96121 81.1267Z" fill="#5E3100"/>
<path d="M24.2504 91.7354C24.6107 92.2383 24.8056 92.7941 24.835 93.4029C24.873 94.0055 24.7362 94.6021 24.4246 95.1928C24.113 95.7835 23.619 96.3211 22.9427 96.8057C22.275 97.284 21.5285 97.6614 20.7031 97.9379C19.869 98.2206 19.0137 98.4004 18.1371 98.4773C17.2519 98.5604 16.3925 98.5331 15.5591 98.3954C14.7169 98.264 13.9614 98.0245 13.2926 97.677C12.6089 97.3271 12.0589 96.8616 11.6427 96.2807C11.5805 96.194 11.5078 96.0558 11.4244 95.8662C11.3349 95.668 11.3178 95.4243 11.3732 95.1354C11.4018 95.1936 11.4409 95.2574 11.4906 95.3268C11.5254 95.3937 11.5677 95.4618 11.6174 95.5312C11.9404 95.9821 12.4097 96.3348 13.0251 96.5893C13.6318 96.8501 14.3227 97.0177 15.0978 97.0922C15.8729 97.1668 16.6819 97.1513 17.525 97.046C18.3531 96.9381 19.1607 96.7466 19.9477 96.4715C20.7347 96.1963 21.436 95.8382 22.0516 95.3971C22.5025 95.0741 22.8795 94.7121 23.1828 94.3111C23.486 93.9102 23.6583 93.4914 23.6999 93.0549C23.7501 92.6121 23.6168 92.1697 23.2999 91.7275C22.9583 91.2506 22.4952 90.9065 21.9109 90.6953C21.3266 90.4841 20.6748 90.3803 19.9556 90.3838C19.2278 90.3935 18.4821 90.4882 17.7185 90.6679C16.9463 90.8537 16.2014 91.1053 15.4839 91.4225C14.7578 91.746 14.1085 92.1127 13.5363 92.5227C13.2848 92.7029 13.0284 92.9128 12.7672 93.1525C12.4972 93.3984 12.2892 93.6392 12.1432 93.875C11.9911 94.1022 11.9709 94.2938 12.0827 94.4499C12.1883 94.5973 12.3986 94.6893 12.7136 94.7261C13.02 94.769 13.3752 94.7704 13.7794 94.7301C14.1836 94.6899 14.5926 94.6198 15.0067 94.52C15.4058 94.4178 15.7497 94.3026 16.0384 94.1745C16.189 94.5128 16.2458 94.7935 16.2089 95.0168C16.1658 95.2314 16.0532 95.4039 15.8711 95.5343C15.637 95.7021 15.3179 95.8061 14.9137 95.8463C14.5095 95.8866 14.0842 95.8699 13.6377 95.7961C13.1763 95.7199 12.7564 95.6008 12.378 95.4389C11.9934 95.2684 11.711 95.0574 11.5308 94.8059C11.3444 94.5458 11.2907 94.2693 11.3696 93.9766C11.4337 93.6814 11.5821 93.3848 11.8148 93.0869C12.0474 92.789 12.3204 92.5015 12.6338 92.2246C12.9384 91.9538 13.2338 91.7159 13.5199 91.5109C14.4044 90.8772 15.2927 90.4048 16.1851 90.0935C17.0687 89.7884 17.9259 89.6204 18.7567 89.5895C19.5812 89.5498 20.3532 89.62 21.0726 89.8C21.7859 89.9714 22.4162 90.2284 22.9635 90.571C23.5046 90.9051 23.9336 91.2932 24.2504 91.7354Z" fill="#5E3100"/>
<path d="M36.1882 102.145C36.4432 102.338 36.6339 102.59 36.7603 102.9C36.8782 103.203 36.8566 103.461 36.6955 103.674C36.6117 103.784 36.5045 103.89 36.3739 103.992C36.2347 104.087 36.1063 104.177 35.9885 104.262C35.1128 104.87 34.296 105.435 33.5381 105.958C32.7738 106.49 32.032 106.992 31.3128 107.464C30.5786 107.938 29.8359 108.406 29.0847 108.867C28.325 109.322 27.5131 109.783 26.6488 110.253C27.0233 110.43 27.3672 110.55 27.6805 110.613C27.9874 110.685 28.2452 110.733 28.4542 110.758C28.6567 110.791 28.7919 110.833 28.8599 110.885C28.9024 110.917 28.9436 110.995 28.9835 111.119C29.0149 111.237 29.0314 111.356 29.0329 111.478C29.0344 111.599 29.0126 111.69 28.9675 111.749C28.6522 111.671 28.2954 111.568 27.8971 111.44C27.4903 111.306 27.0709 111.135 26.6389 110.928C26.2069 110.721 25.8039 110.476 25.4299 110.192C25.0303 109.889 24.6642 109.525 24.3315 109.098C23.9923 108.681 23.729 108.233 23.5416 107.757C23.3392 107.282 23.251 106.807 23.2769 106.331C23.2878 105.858 23.4512 105.413 23.7669 104.996C24.1085 104.546 24.5037 104.236 24.9525 104.068C25.4014 103.899 25.8796 103.834 26.3872 103.87C26.8862 103.901 27.3828 103.996 27.8769 104.156C28.371 104.317 28.8394 104.511 29.2819 104.74C29.716 104.962 30.0957 105.176 30.421 105.382C30.7464 105.589 30.9856 105.75 31.1386 105.866L31.2151 105.924C32.091 105.263 32.9627 104.599 33.8302 103.931C34.6912 103.272 35.4772 102.677 36.1882 102.145ZM30.8007 106.232C30.2989 105.905 29.7617 105.625 29.189 105.392C28.6163 105.159 28.0549 105.008 27.5049 104.939C26.9399 104.872 26.4138 104.921 25.9265 105.087C25.4307 105.247 25.0121 105.552 24.6706 106.002C24.3484 106.427 24.2022 106.859 24.2319 107.296C24.2532 107.727 24.3908 108.146 24.6447 108.553C24.8901 108.953 25.2051 109.305 25.5897 109.61C26.3467 109.247 27.1748 108.764 28.0739 108.161C28.9666 107.566 29.8755 106.923 30.8007 106.232Z" fill="#5E3100"/>
<path d="M59.5181 109.204C59.3967 109.649 59.1914 109.954 58.9024 110.119C58.6152 110.275 58.2664 110.349 57.8561 110.342C57.4458 110.335 57.0096 110.29 56.5473 110.209C56.2881 110.575 56.0255 111.022 55.7595 111.549C55.4813 112.085 55.207 112.66 54.9368 113.273C54.6561 113.884 54.3841 114.508 54.1207 115.144C53.845 115.788 53.5844 116.409 53.3389 117.005C53.0916 117.611 52.8596 118.16 52.6431 118.653C52.4266 119.146 52.231 119.55 52.0564 119.866C52.594 119.949 53.0757 120.012 53.5015 120.055C53.9167 120.095 54.3128 120.121 54.6898 120.134C55.0667 120.146 55.456 120.149 55.8576 120.144C55.6498 120.649 55.2524 120.969 54.6655 121.104C54.0786 121.239 53.223 121.208 52.0989 121.01C51.5421 120.913 50.968 120.79 50.3766 120.643C49.7851 120.496 49.2419 120.351 48.7468 120.21C48.2518 120.069 47.8661 119.953 47.5899 119.861C48.0061 119.587 48.3792 119.436 48.7092 119.408C49.0373 119.389 49.3169 119.401 49.548 119.441C49.8947 119.502 50.2046 119.557 50.4778 119.605C50.7404 119.651 50.9987 119.691 51.2527 119.725C51.389 119.38 51.5497 118.959 51.7347 118.461C51.9092 117.961 52.1059 117.427 52.3248 116.859C52.5332 116.289 52.7417 115.719 52.9501 115.149C53.1585 114.579 53.3605 114.046 53.556 113.55C53.7497 113.064 53.9181 112.661 54.0612 112.339C54.2938 111.817 54.5443 111.346 54.8128 110.928C55.0812 110.509 55.3566 110.206 55.6389 110.017C55.0894 109.877 54.5366 109.726 53.9804 109.563C53.4241 109.401 52.8064 109.249 52.1273 109.108C52.6158 108.793 53.0575 108.621 53.4523 108.593C53.8489 108.555 54.1681 108.557 54.4097 108.599C55.1136 108.723 55.7019 108.826 56.1747 108.909C56.6388 108.98 57.0451 109.04 57.3936 109.091C57.744 109.131 58.0857 109.158 58.4188 109.174C58.7414 109.187 59.1078 109.197 59.5181 109.204Z" fill="#5E3100"/>
<path d="M73.3162 107.508C73.6535 107.641 73.8748 107.793 73.9801 107.963C74.0854 108.134 74.1453 108.283 74.1598 108.41C74.1924 108.696 74.1352 109.089 73.9882 109.589C73.8318 110.101 73.6143 110.689 73.3359 111.354C73.0574 112.019 72.7342 112.716 72.3664 113.445C72.6974 113.429 73.0118 113.409 73.3098 113.386C73.6077 113.363 73.9899 113.325 74.4562 113.272L74.7105 113.243C74.6056 113.641 74.4027 113.933 74.1017 114.117C73.7912 114.314 73.4188 114.437 72.9842 114.486C72.8041 114.507 72.6174 114.517 72.4242 114.518C72.2204 114.519 72.0114 114.522 71.797 114.525C71.354 115.348 70.9169 116.128 70.4855 116.864C70.0435 117.602 69.6254 118.267 69.2313 118.859C68.8278 119.463 68.4658 119.961 68.1453 120.352C67.6946 120.918 67.3526 121.215 67.1195 121.242C66.9711 121.258 66.8002 121.219 66.6067 121.123C66.4027 121.028 66.1897 120.902 65.9678 120.745C66.0641 120.648 66.1771 120.415 66.3068 120.046C66.426 119.678 66.5501 119.213 66.6793 118.651C66.799 118.1 66.9181 117.496 67.0364 116.839C67.1441 116.182 67.2347 115.517 67.3082 114.843C67.3816 114.169 67.4317 113.525 67.4582 112.91C67.4753 112.306 67.458 111.777 67.406 111.321C67.3577 110.897 67.2791 110.584 67.1701 110.382C67.0624 110.19 66.9079 110.106 66.7065 110.129C66.4627 110.157 66.1818 110.377 65.8638 110.789C65.5457 111.201 65.2118 111.851 64.8621 112.738L64.5416 112.469C64.7711 111.563 65.1188 110.798 65.5846 110.176C66.0399 109.555 66.5643 109.211 67.1578 109.143C67.6665 109.085 68.0516 109.262 68.3131 109.672C68.5758 110.093 68.7506 110.685 68.8376 111.448C68.8654 111.692 68.8809 111.969 68.8841 112.28C68.8873 112.591 68.8778 112.979 68.8556 113.443C69.3303 113.464 69.7503 113.475 70.1155 113.476C70.4806 113.478 70.8299 113.481 71.1633 113.486C71.5693 112.527 71.9558 111.538 72.3228 110.519C72.6898 109.501 73.021 108.497 73.3162 107.508ZM68.7854 114.24C68.7188 114.881 68.6317 115.53 68.524 116.186C68.407 116.854 68.2809 117.491 68.146 118.097C68.0017 118.715 67.8554 119.268 67.7072 119.757C67.9961 119.467 68.3095 119.061 68.6473 118.539C68.9851 118.018 69.3344 117.409 69.6952 116.713C70.0455 116.018 70.3997 115.264 70.7578 114.45C70.4326 114.423 70.1068 114.39 69.7804 114.352C69.4541 114.314 69.1224 114.277 68.7854 114.24Z" fill="#5E3100"/>
<path d="M79.8615 104.158C80.0952 104.053 80.4196 104.06 80.8347 104.179C81.2497 104.297 81.7142 104.486 82.2281 104.747C82.7323 105.013 83.2539 105.317 83.793 105.66C84.3266 106.018 84.8456 106.381 85.35 106.752C85.8545 107.122 86.2933 107.463 86.6665 107.776C86.529 106.762 86.386 105.763 86.2376 104.778C86.0839 103.806 85.9487 102.903 85.8321 102.067C86.1145 101.941 86.4171 101.899 86.7399 101.942C87.053 101.989 87.2662 102.139 87.3794 102.392C87.4272 102.499 87.4595 102.636 87.4761 102.804C87.4927 102.972 87.512 103.133 87.534 103.287C87.6304 104.26 87.7146 105.128 87.7866 105.89C87.863 106.662 87.9279 107.369 87.9813 108.012C88.0293 108.668 88.073 109.314 88.1123 109.951C88.1462 110.602 88.1715 111.286 88.1882 112.003C88.2049 112.72 88.2175 113.532 88.226 114.439C88.571 114.192 88.8612 113.939 89.0968 113.682C89.3226 113.429 89.5062 113.213 89.6477 113.033C89.7794 112.857 89.8794 112.754 89.9476 112.723C89.9962 112.702 90.0823 112.698 90.2058 112.713C90.3337 112.738 90.4562 112.776 90.5732 112.829C90.6849 112.896 90.756 112.964 90.7865 113.032C90.5617 113.261 90.2975 113.519 89.9938 113.807C89.6803 114.099 89.3241 114.387 88.9251 114.67C88.5304 114.963 88.0994 115.215 87.632 115.424C87.1937 115.619 86.717 115.768 86.2017 115.87C85.6907 115.982 85.1856 116.015 84.6862 115.969C84.1868 115.924 83.7349 115.775 83.3303 115.524C82.9258 115.272 82.6104 114.894 82.384 114.387C82.1794 113.929 82.1031 113.485 82.1553 113.052C82.2118 112.63 82.3582 112.225 82.5945 111.839C82.8309 111.453 83.1209 111.096 83.4646 110.767C83.8082 110.438 84.1699 110.136 84.5494 109.861C84.9333 109.596 85.2989 109.369 85.6461 109.178C85.9836 108.992 86.2671 108.842 86.4964 108.728C85.9628 108.371 85.4405 108.026 84.9297 107.693C84.4189 107.361 83.8886 107.037 83.3388 106.722C82.7836 106.421 82.1727 106.139 81.5061 105.876C80.8438 105.623 80.0944 105.398 79.2578 105.199C79.2097 104.987 79.2618 104.777 79.414 104.568C79.5565 104.364 79.7057 104.228 79.8615 104.158ZM86.853 109.094C86.3251 109.377 85.8287 109.704 85.3638 110.076C84.8892 110.451 84.492 110.857 84.1724 111.292C83.843 111.731 83.6323 112.187 83.5402 112.661C83.4427 113.149 83.5049 113.641 83.727 114.137C83.9533 114.644 84.2562 114.981 84.6357 115.151C85.0195 115.33 85.4393 115.393 85.8951 115.341C86.351 115.289 86.8002 115.17 87.2427 114.984C87.2821 114.184 87.2596 113.271 87.175 112.245C87.0948 111.23 86.9875 110.179 86.853 109.094Z" fill="#5E3100"/>
<path d="M92.6791 96.186C92.9693 95.9185 93.3395 95.8165 93.7899 95.8802C94.2323 95.951 94.6199 96.1668 94.9524 96.5276C95.0103 96.5903 95.0898 96.6766 95.191 96.7864C95.2844 96.9034 95.385 97.0283 95.4928 97.161C95.2908 96.3753 95.2382 95.6258 95.3352 94.9126C95.4322 94.1995 95.7669 93.579 96.3394 93.0512C96.8649 92.5668 97.4212 92.3442 98.0085 92.3831C98.5878 92.4294 99.1378 92.7348 99.6583 93.2995C99.9764 93.6446 100.273 94.0605 100.547 94.5472C100.829 95.0418 101.098 95.5699 101.355 96.1314C101.611 96.6929 101.868 97.2543 102.124 97.8158C102.388 98.3852 102.668 98.925 102.964 99.4352C103.26 99.9455 103.582 100.389 103.929 100.765C104.58 101.471 105.117 101.629 105.54 101.239C105.752 101.043 105.871 100.81 105.897 100.54C105.923 100.269 105.893 99.9847 105.807 99.6868C105.721 99.404 105.607 99.1389 105.466 98.8916C105.325 98.6443 105.19 98.4501 105.059 98.3089C104.951 98.1913 104.816 98.0763 104.654 97.9641C104.5 97.8597 104.353 97.7706 104.212 97.697C104.589 97.35 104.939 97.1868 105.263 97.2076C105.579 97.2355 105.856 97.3789 106.094 97.6377C106.319 97.8808 106.487 98.1821 106.601 98.5415C106.715 98.9009 106.763 99.2841 106.747 99.6911C106.73 100.113 106.634 100.521 106.459 100.914C106.292 101.314 106.04 101.67 105.703 101.981C105.224 102.422 104.753 102.603 104.288 102.524C103.815 102.452 103.366 102.184 102.939 101.721C102.672 101.431 102.41 101.077 102.156 100.659C101.901 100.241 101.655 99.7934 101.418 99.3157C101.18 98.838 100.954 98.3721 100.739 97.918C100.349 97.102 100 96.4008 99.6918 95.8146C99.3908 95.2362 99.0704 94.7627 98.7306 94.3941C98.398 94.0333 98.0452 93.8 97.672 93.6943C97.2917 93.5806 96.925 93.6865 96.5721 94.0118C96.2505 94.3082 96.0504 94.6813 95.9717 95.131C95.8858 95.5729 95.8894 96.0411 95.9825 96.5355C96.075 97.0451 96.2133 97.5414 96.3975 98.0244C96.5817 98.5075 96.7794 98.9345 96.9908 99.3054C97.3075 99.8694 97.6414 100.476 97.9925 101.124C98.3435 101.772 98.6834 102.416 99.0122 103.056C99.3331 103.703 99.6106 104.304 99.8448 104.857C100.079 105.41 100.237 105.873 100.32 106.246C100.403 106.634 100.373 106.894 100.232 107.024C100.154 107.096 100.008 107.151 99.7952 107.187C99.5818 107.239 99.3355 107.263 99.0563 107.259C99.0763 107.139 99.0264 106.88 98.9067 106.483C98.787 106.086 98.6107 105.595 98.3778 105.012C98.1449 104.429 97.8761 103.799 97.5715 103.122C97.259 102.453 96.9204 101.779 96.5555 101.099C96.1899 100.435 95.819 99.8126 95.4425 99.2311C95.0661 98.6496 94.6972 98.1628 94.3357 97.7707C93.8875 97.2844 93.5087 97.0388 93.1994 97.0337C92.8901 97.0287 92.5316 97.2142 92.1237 97.5901C92.0726 97.3615 92.1093 97.1102 92.2337 96.8359C92.3581 96.5617 92.5065 96.345 92.6791 96.186Z" fill="#5E3100"/>
<path d="M102.76 84.2024C102.882 83.9774 103.139 83.7831 103.531 83.6196C103.909 83.4604 104.374 83.3185 104.927 83.1938C105.475 83.0784 106.058 82.9882 106.676 82.9229C107.294 82.8576 107.904 82.8064 108.507 82.7693C109.114 82.7467 109.658 82.7386 110.14 82.7452L106.7 79.2223C106.51 79.0346 106.417 78.8262 106.42 78.5972C106.408 78.3725 106.449 78.1519 106.542 77.9355C106.626 77.7139 106.719 77.5094 106.82 77.3219C107.04 77.6108 107.283 77.9125 107.549 78.2269C107.806 78.5362 108.126 78.8976 108.508 79.3114C108.89 79.7251 109.353 80.225 109.897 80.8111C110.435 81.4067 111.089 82.1254 111.858 82.9673C112.627 83.8091 113.536 84.818 114.585 85.9938C114.64 86.0481 114.712 86.1293 114.799 86.2372C114.895 86.3502 114.995 86.4347 115.098 86.4906C115.182 86.5364 115.261 86.5486 115.333 86.5271C115.4 86.5151 115.462 86.4575 115.518 86.3543C115.64 86.1293 115.665 85.87 115.594 85.5765C115.532 85.288 115.413 84.9929 115.237 84.6911C115.07 84.3944 114.876 84.1254 114.655 83.8841C114.429 83.6522 114.213 83.4803 114.007 83.3684C113.791 83.2515 113.55 83.1813 113.284 83.1581C113.502 82.755 113.744 82.5101 114.01 82.4235C114.279 82.3514 114.546 82.3865 114.808 82.5289C115.127 82.7019 115.392 82.9733 115.604 83.3431C115.826 83.718 115.986 84.1267 116.086 84.5691C116.19 85.026 116.23 85.4665 116.206 85.8905C116.187 86.3289 116.098 86.6935 115.941 86.9842C115.768 87.3029 115.567 87.4609 115.338 87.458C115.113 87.4696 114.902 87.422 114.705 87.3151C114.602 87.2592 114.509 87.1964 114.425 87.1268C114.342 87.0572 114.265 86.9854 114.196 86.9115L111.386 84.0397C111.395 84.1784 111.416 84.3414 111.448 84.5286C111.475 84.7252 111.518 85.0154 111.576 85.3992C111.704 86.1481 111.861 86.8883 112.046 87.62C112.232 88.3517 112.447 89.051 112.692 89.7178C112.946 90.3898 113.222 91.0004 113.519 91.5496C113.354 91.6062 113.182 91.61 113.003 91.561C112.832 91.5172 112.7 91.4698 112.606 91.4189C112.316 91.2612 112.063 90.9664 111.849 90.5344C111.638 90.1169 111.457 89.6121 111.305 89.02C111.148 88.4372 111.016 87.8194 110.909 87.1667C110.802 86.514 110.718 85.8741 110.658 85.2468C110.598 84.6195 110.55 84.0595 110.514 83.5667C109.891 83.6175 109.3 83.6669 108.74 83.715C108.175 83.7725 107.599 83.8606 107.013 83.9794C106.436 84.1033 105.81 84.2733 105.135 84.4894C104.463 84.7199 103.711 85.0217 102.878 85.3948C102.764 85.2239 102.697 85.0236 102.676 84.7938C102.646 84.5589 102.674 84.3618 102.76 84.2024Z" fill="#5E3100"/>
<path d="M109.428 62.6139C109.654 62.3306 109.864 62.1636 110.058 62.1129C110.252 62.0622 110.412 62.0486 110.538 62.072C110.821 62.1248 111.18 62.2947 111.615 62.5818C112.058 62.8814 112.557 63.2618 113.111 63.7231C113.665 64.1844 114.237 64.6978 114.826 65.2632C114.908 64.942 114.981 64.6356 115.046 64.3439C115.111 64.0523 115.187 63.6757 115.273 63.2144L115.32 62.9627C115.67 63.1798 115.889 63.4593 115.977 63.8013C116.074 64.1556 116.082 64.5478 116.002 64.9777C115.969 65.156 115.924 65.3376 115.868 65.5224C115.81 65.7177 115.751 65.9183 115.691 66.1241C116.348 66.7891 116.966 67.4357 117.543 68.0641C118.119 68.7029 118.632 69.2976 119.082 69.8481C119.542 70.4111 119.911 70.903 120.191 71.324C120.601 71.9211 120.784 72.335 120.741 72.5657C120.714 72.7125 120.626 72.8643 120.477 73.0211C120.327 73.1884 120.144 73.355 119.928 73.5211C119.864 73.4006 119.674 73.2242 119.359 72.992C119.043 72.7702 118.635 72.5152 118.135 72.2268C117.644 71.9509 117.101 71.66 116.507 71.354C115.911 71.0585 115.302 70.7769 114.679 70.509C114.056 70.2411 113.455 70.0043 112.875 69.7985C112.303 69.6053 111.792 69.4666 111.341 69.3827C110.921 69.3045 110.599 69.2879 110.374 69.3327C110.159 69.3795 110.033 69.5025 109.996 69.7017C109.951 69.9429 110.079 70.276 110.379 70.7009C110.68 71.1258 111.203 71.6356 111.95 72.2303L111.598 72.4578C110.799 71.9725 110.17 71.416 109.712 70.7882C109.252 70.1708 109.076 69.5685 109.186 68.9813C109.28 68.4779 109.561 68.1614 110.03 68.0318C110.509 67.9041 111.127 67.9106 111.882 68.0512C112.123 68.0961 112.393 68.1626 112.691 68.2507C112.989 68.3388 113.357 68.4616 113.794 68.619C113.953 68.1713 114.087 67.773 114.196 67.4243C114.304 67.0756 114.409 66.7426 114.512 66.4253C113.714 65.756 112.882 65.0965 112.016 64.4468C111.15 63.7972 110.287 63.1863 109.428 62.6139ZM114.536 68.9198C115.129 69.1714 115.724 69.4449 116.319 69.7404C116.924 70.0483 117.496 70.3555 118.036 70.6622C118.584 70.9813 119.07 71.2834 119.494 71.5686C119.301 71.2072 119.005 70.7885 118.605 70.3126C118.206 69.8367 117.726 69.3242 117.167 68.7751C116.605 68.2365 115.988 67.6767 115.315 67.0957C115.193 67.3985 115.067 67.7004 114.935 68.0013C114.803 68.3023 114.67 68.6084 114.536 68.9198Z" fill="#5E3100"/>
<path d="M108.344 51.6497C108.275 51.0349 108.314 50.4347 108.463 49.849C108.613 49.2739 108.885 48.7869 109.28 48.388C109.675 47.9891 110.196 47.7532 110.843 47.6801C111.415 47.6154 111.874 47.6923 112.221 47.9108C112.578 48.1281 112.842 48.4203 113.013 48.7875C113.183 49.1547 113.288 49.5185 113.329 49.8788C112.93 49.5804 112.53 49.3626 112.128 49.2255C111.727 49.0991 111.352 49.0556 111.002 49.0951C110.642 49.1358 110.313 49.2642 110.015 49.4804C109.73 49.7059 109.512 50.0149 109.363 50.4074C109.204 50.8012 109.155 51.2736 109.218 51.8248C109.271 52.3017 109.403 52.7538 109.612 53.181C109.823 53.6188 110.103 53.9628 110.454 54.2131C110.805 54.4739 111.219 54.5774 111.696 54.5235C112.131 54.4744 112.487 54.3053 112.766 54.0162C113.057 53.7365 113.301 53.3868 113.501 52.9671C113.711 52.5462 113.903 52.1059 114.076 51.6461C114.26 51.1852 114.463 50.7437 114.683 50.3216C114.904 49.8995 115.175 49.5415 115.496 49.2476C115.818 48.9643 116.223 48.7951 116.711 48.74C117.145 48.6909 117.618 48.7448 118.13 48.9017C118.653 49.068 119.155 49.328 119.635 49.6816C120.115 50.0353 120.52 50.4834 120.849 51.0258C121.19 51.567 121.399 52.1874 121.478 52.8869C121.561 53.6183 121.465 54.1497 121.192 54.4812C120.918 54.8127 120.532 55.0066 120.034 55.0629C119.641 55.1072 119.215 55.0856 118.754 54.9981C118.293 54.9106 117.85 54.789 117.425 54.6331C117 54.4878 116.635 54.3412 116.328 54.1934C116.355 53.9542 116.425 53.7691 116.539 53.6382C116.664 53.506 116.838 53.4274 117.06 53.4022C117.283 53.3771 117.537 53.3913 117.822 53.445C118.108 53.5092 118.406 53.5829 118.716 53.666C119.028 53.7596 119.326 53.8333 119.611 53.8869C119.908 53.95 120.162 53.9695 120.374 53.9456C120.565 53.924 120.707 53.849 120.8 53.7204C120.894 53.6024 120.922 53.3739 120.883 53.0347C120.826 52.5259 120.662 52.0721 120.391 51.6733C120.121 51.2745 119.798 50.9353 119.423 50.6556C119.049 50.3865 118.662 50.1888 118.261 50.0623C117.871 49.9346 117.522 49.8882 117.215 49.9229C116.833 49.966 116.518 50.125 116.27 50.3999C116.033 50.6737 115.824 51.0139 115.645 51.4206C115.467 51.8379 115.29 52.2711 115.115 52.7203C114.942 53.18 114.739 53.6162 114.507 54.0289C114.275 54.4522 113.983 54.8073 113.629 55.0942C113.275 55.3811 112.822 55.5557 112.271 55.618C111.72 55.6802 111.218 55.6081 110.765 55.4016C110.313 55.2058 109.921 54.912 109.587 54.5204C109.242 54.1299 108.966 53.6834 108.759 53.1808C108.542 52.69 108.404 52.1796 108.344 51.6497Z" fill="#5E3100"/>
<path d="M97.8896 29.6973C97.534 29.1911 97.3444 28.6334 97.3207 28.0244C97.2883 27.4215 97.4306 26.8261 97.7478 26.2384C98.0649 25.6507 98.5639 25.1177 99.2447 24.6395C99.9168 24.1674 100.667 23.797 101.495 23.5283C102.332 23.2534 103.189 23.0817 104.066 23.013C104.952 22.9382 105.811 22.9735 106.643 23.119C107.484 23.2583 108.237 23.5048 108.903 23.8585C109.583 24.2149 110.129 24.6854 110.539 25.2702C110.601 25.3575 110.672 25.4964 110.754 25.6867C110.841 25.8858 110.856 26.1296 110.798 26.4181C110.77 26.3596 110.731 26.2954 110.682 26.2256C110.648 26.1583 110.607 26.0898 110.558 26.02C110.239 25.5661 109.773 25.209 109.16 24.9487C108.556 24.6823 107.866 24.5082 107.092 24.4264C106.318 24.3446 105.508 24.3525 104.664 24.4499C103.835 24.55 103.026 24.7339 102.236 25.0017C101.447 25.2695 100.742 25.621 100.123 26.0563C99.6687 26.3752 99.2883 26.7336 98.9813 27.1317C98.6744 27.5298 98.4981 27.9469 98.4525 28.383C98.3981 28.8253 98.5273 29.269 98.8399 29.7141C99.1771 30.1942 99.6369 30.5426 100.219 30.7592C100.802 30.9759 101.452 31.0858 102.172 31.0891C102.899 31.0861 103.646 30.9984 104.411 30.8259C105.185 30.6473 105.932 30.4027 106.653 30.0922C107.382 29.7756 108.035 29.415 108.611 29.0103C108.864 28.8325 109.122 28.625 109.386 28.3878C109.658 28.1444 109.868 27.9055 110.016 27.6711C110.171 27.4454 110.193 27.254 110.082 27.0969C109.978 26.9485 109.769 26.8545 109.454 26.8148C109.148 26.7689 108.793 26.7643 108.388 26.8007C107.984 26.8372 107.574 26.9034 107.159 26.9993C106.759 27.0978 106.414 27.2098 106.124 27.3352C105.977 26.9955 105.922 26.7142 105.961 26.4914C106.007 26.2772 106.121 26.1057 106.304 25.977C106.54 25.8114 106.86 25.7104 107.264 25.674C107.669 25.6375 108.094 25.6582 108.54 25.7362C109.001 25.8167 109.419 25.9397 109.796 26.1051C110.179 26.2792 110.46 26.4929 110.637 26.746C110.821 27.0079 110.872 27.2848 110.791 27.5768C110.724 27.8714 110.573 28.1666 110.337 28.4623C110.102 28.758 109.826 29.0429 109.51 29.3169C109.203 29.5848 108.906 29.8199 108.617 30.0223C107.727 30.6476 106.834 31.1117 105.939 31.4146C105.053 31.7114 104.194 31.8714 103.363 31.8946C102.538 31.9265 101.767 31.8491 101.049 31.6623C100.338 31.4843 99.7097 31.2215 99.1656 30.8737C98.6276 30.5346 98.2023 30.1425 97.8896 29.6973Z" fill="#5E3100"/>
<path d="M84.0187 17.976C84.2989 17.7057 84.5866 17.4344 84.8817 17.1619C85.1854 16.8958 85.5274 16.605 85.9077 16.2895C86.2965 15.9803 86.748 15.6313 87.2623 15.2425C87.7852 14.8601 88.3984 14.4185 89.1019 13.9178C88.9671 13.831 88.8162 13.739 88.6493 13.6417C88.491 13.5508 88.3444 13.462 88.2095 13.3752C88.4129 13.1011 88.6714 12.9675 88.9851 12.9744C89.2987 12.9813 89.648 13.0745 90.0329 13.2538C90.1562 13.1593 90.2561 13.0873 90.3326 13.0379C90.4092 12.9884 90.5027 12.925 90.6132 12.8476C90.7238 12.7703 90.8801 12.667 91.0821 12.538C91.2904 12.4004 91.5774 12.2016 91.943 11.9416C92.3172 11.6879 92.8051 11.3526 93.4067 10.9356C93.4556 10.9055 93.5491 10.8421 93.6873 10.7454C93.8254 10.6487 93.9358 10.5446 94.0185 10.4333C94.0693 10.3648 94.0914 10.3081 94.0848 10.2633C94.0867 10.2249 94.0534 10.1803 93.9849 10.1295C93.8136 10.0023 93.5808 9.94913 93.2865 9.96984C93.0008 9.99691 92.6961 10.0763 92.3725 10.2081C92.0553 10.3314 91.7585 10.4897 91.4821 10.6831C91.2121 10.868 91.004 11.0589 90.8579 11.2559C90.807 11.3245 90.7584 11.4079 90.7119 11.5063C90.6655 11.6047 90.614 11.7457 90.5573 11.9295C90.1975 11.6625 89.9935 11.3916 89.9451 11.1166C89.9117 10.8395 89.9872 10.5767 90.1715 10.3283C90.3876 10.037 90.6894 9.80932 91.0768 9.6452C91.4728 9.48743 91.8968 9.39031 92.3489 9.35385C92.8159 9.31519 93.2576 9.33745 93.6741 9.42064C94.1054 9.50163 94.4539 9.64064 94.7194 9.83768C94.9935 10.0411 95.128 10.2537 95.1227 10.4756C95.1174 10.6975 95.0481 10.8984 94.9146 11.0783C94.8447 11.1725 94.7619 11.2572 94.6663 11.3324C94.5793 11.4139 94.4911 11.4879 94.4018 11.5545L91.1757 13.9423C91.2848 14.0101 91.3908 14.082 91.4936 14.1583C91.6049 14.2409 91.7163 14.3236 91.8277 14.4062C92.2474 14.7176 92.6351 15.0186 92.9907 15.309C93.3464 15.5995 93.6828 15.889 94 16.1775C94.7481 15.6168 95.3665 15.1592 95.8554 14.8047C96.3528 14.4565 96.7684 14.1739 97.1022 13.9567C97.451 13.7373 97.7583 13.5469 98.0241 13.3855C98.1092 13.3424 98.2231 13.2874 98.3657 13.2206C98.5232 13.1515 98.6937 13.1186 98.8772 13.1219C99.0756 13.1231 99.2776 13.1999 99.4832 13.3524C99.1493 13.5696 98.7167 13.8662 98.1853 14.2423C97.6688 14.6162 97.1131 15.034 96.5181 15.4957C95.9295 15.9489 95.3526 16.4041 94.7875 16.8614C94.9075 16.9504 95.0681 17.0829 95.2696 17.2589C95.4859 17.4328 95.6883 17.5896 95.8768 17.7294C95.4142 17.7979 95.0547 17.7902 94.7983 17.7062C94.5482 17.6136 94.3375 17.5037 94.1662 17.3766C93.7796 17.7007 93.4142 18.0141 93.0702 18.3167C92.7261 18.6192 92.414 18.9056 92.1338 19.1759C91.6242 19.6478 91.1912 20.0703 90.8347 20.4434C90.4931 20.8142 90.227 21.1281 90.0363 21.3851C89.9346 21.5222 89.8499 21.6453 89.7822 21.7544C89.7167 21.8785 89.6544 21.9983 89.5953 22.1138C89.1902 21.7468 88.9698 21.4172 88.9342 21.1252C88.9007 20.848 89.0398 20.4995 89.3512 20.0798C89.4974 19.8828 89.6723 19.6739 89.876 19.4531C90.0882 19.2387 90.3537 18.9973 90.6723 18.729C90.976 18.4629 91.3403 18.1688 91.7654 17.8466C92.1904 17.5244 92.6919 17.1527 93.27 16.7316C92.7475 16.3439 92.3117 16.0272 91.9627 15.7815C91.6137 15.5358 91.3076 15.322 91.0442 15.1398C90.7809 14.9577 90.5112 14.7842 90.2351 14.6192C90.2012 14.6471 90.1257 14.704 90.0088 14.79C89.8919 14.8759 89.6858 15.0284 89.3904 15.2475C89.095 15.4667 88.6582 15.7868 88.0801 16.2079C87.502 16.629 86.7241 17.1941 85.7464 17.9031C85.417 18.1501 85.089 18.2521 84.7623 18.209C84.4293 18.1744 84.1815 18.0968 84.0187 17.976Z" fill="#5E3100"/>
<path d="M73.6201 14.0519C73.0359 13.8481 72.5121 13.5524 72.0486 13.1648C71.5951 12.7807 71.2742 12.3242 71.0859 11.7953C70.8976 11.2664 70.9106 10.6948 71.1249 10.0804C71.3146 9.53659 71.5831 9.15575 71.9302 8.93792C72.2808 8.71003 72.6585 8.59889 73.0632 8.60451C73.4679 8.61013 73.8415 8.67267 74.1839 8.79212C73.7422 9.02213 73.3725 9.28855 73.0748 9.5914C72.7872 9.89776 72.5854 10.2171 72.4695 10.5495C72.35 10.8919 72.3232 11.2441 72.389 11.6059C72.4684 11.9612 72.6527 12.291 72.942 12.5953C73.2277 12.9096 73.6325 13.1581 74.1562 13.3408C74.6094 13.4989 75.0739 13.5762 75.5496 13.5727C76.0353 13.5727 76.4669 13.469 76.8442 13.2617C77.2316 13.058 77.5044 12.7295 77.6625 12.2763C77.8065 11.8633 77.8086 11.4687 77.6688 11.0923C77.5425 10.7093 77.3335 10.337 77.0417 9.97541C76.7533 9.6037 76.4396 9.24007 76.1005 8.88452C75.7648 8.51891 75.4546 8.14521 75.1698 7.76343C74.885 7.38165 74.6797 6.98242 74.5539 6.56574C74.4382 6.15258 74.4611 5.71435 74.6228 5.25106C74.7668 4.83813 75.0204 4.43516 75.3834 4.04214C75.76 3.64256 76.2117 3.30306 76.7385 3.02363C77.2652 2.74421 77.8445 2.57346 78.4762 2.51139C79.1114 2.43925 79.7613 2.51912 80.426 2.751C81.121 2.99342 81.5585 3.30985 81.7386 3.7003C81.9187 4.09074 81.9262 4.52265 81.7611 4.99601C81.6311 5.36865 81.4269 5.74364 81.1484 6.12096C80.8699 6.49829 80.5682 6.84494 80.2433 7.1609C79.9285 7.48038 79.6381 7.74622 79.372 7.95842C79.168 7.83077 79.0317 7.68719 78.9631 7.52769C78.898 7.35811 78.9023 7.16757 78.9761 6.95607C79.0499 6.74457 79.1727 6.52195 79.3446 6.2882C79.5266 6.05796 79.7222 5.82116 79.9314 5.57781C80.1506 5.33796 80.3462 5.10117 80.5181 4.86742C80.7036 4.62711 80.8315 4.40624 80.9017 4.20481C80.965 4.02352 80.9588 3.8632 80.8831 3.72384C80.8175 3.58799 80.6236 3.46385 80.3013 3.35143C79.8179 3.18279 79.3379 3.13395 78.8612 3.20492C78.3846 3.27589 77.939 3.41982 77.5244 3.6367C77.1199 3.85711 76.7738 4.12049 76.4862 4.42685C76.2021 4.72313 76.0091 5.01731 75.9072 5.30939C75.7807 5.67196 75.7877 6.02458 75.928 6.36724C76.0718 6.69983 76.2881 7.03512 76.5769 7.3731C76.8757 7.71459 77.1897 8.06136 77.5188 8.41339C77.8579 8.76894 78.1631 9.14088 78.4343 9.52922C78.7156 9.92107 78.9089 10.3387 79.014 10.7821C79.1192 11.2254 79.0804 11.709 78.8977 12.2327C78.7151 12.7564 78.4326 13.1775 78.0503 13.4961C77.6782 13.8181 77.2432 14.0449 76.7455 14.1763C76.2443 14.3177 75.7223 14.3729 75.1796 14.3417C74.6435 14.3242 74.1236 14.2276 73.6201 14.0519Z" fill="#5E3100"/>
</svg>
