<svg width="122" height="121" viewBox="0 0 122 121" fill="none" xmlns="http://www.w3.org/2000/svg">
<path d="M54.2226 0.914347L53.8539 1.0637C53.7319 1.12142 53.6413 1.19416 53.5821 1.2819C53.5222 1.36435 53.5 1.46912 53.5153 1.59619L54.4931 9.68128C54.5181 9.88778 54.5916 10.0293 54.7137 10.1059C54.8351 10.1771 55.0017 10.2 55.2135 10.1744L56.1824 10.0572C56.4684 10.0226 56.7124 9.9528 56.9146 9.84777C57.1161 9.73744 57.2941 9.56549 57.4485 9.33193C57.6082 9.09773 57.7564 8.76822 57.8931 8.34341L58.2739 7.16114C58.3294 6.99863 58.4096 6.88417 58.5144 6.81778C58.6192 6.75139 58.7483 6.7304 58.9016 6.75483C59.055 6.77926 59.1669 6.83826 59.2373 6.93181C59.313 7.02473 59.3376 7.16143 59.3111 7.34192L58.8985 10.2606C58.8591 10.5124 58.7932 10.7004 58.7008 10.8244C58.6143 10.953 58.4677 11.0298 58.2613 11.0548C58.1342 11.0702 58.0069 11.0614 57.8793 11.0285C57.7571 10.9949 57.6163 10.9636 57.457 10.9345C57.303 10.9048 57.1174 10.903 56.9003 10.9293L51.0311 11.6391C50.8405 11.6621 50.6927 11.6397 50.5878 11.5718C50.4882 11.5033 50.4301 11.4002 50.4134 11.2625C50.3853 11.0296 50.4875 10.8533 50.7202 10.7339L51.0889 10.5845C51.2162 10.5262 51.3071 10.4561 51.3616 10.3743C51.4209 10.2865 51.4428 10.1791 51.4274 10.052L50.4497 1.96693C50.4343 1.83986 50.3877 1.74342 50.3099 1.67762C50.2368 1.60588 50.1315 1.55683 49.994 1.53048L49.6003 1.47334C49.3458 1.41278 49.2045 1.26602 49.1763 1.03305C49.1591 0.890093 49.1909 0.776108 49.272 0.691096C49.3577 0.600149 49.4958 0.543149 49.6864 0.520098L53.9117 0.00912892C54.1076 -0.0145626 54.2553 0.00785939 54.3549 0.0763954C54.4592 0.138997 54.52 0.241776 54.5373 0.384735C54.5655 0.617704 54.4606 0.794242 54.2226 0.914347Z" fill="#5E3100"/>
<path d="M34.2778 5.93753C35.1053 5.58031 35.9067 5.39123 36.6819 5.37029C37.4619 5.34724 38.1916 5.47664 38.871 5.75848C39.5503 6.04033 40.1596 6.46276 40.6989 7.0258C41.2361 7.58393 41.6812 8.27187 42.0342 9.0896C42.3618 9.84857 42.5413 10.6076 42.5727 11.3666C42.609 12.1236 42.4992 12.8448 42.2433 13.5304C41.9874 14.2159 41.5895 14.835 41.0496 15.3876C40.5097 15.9401 39.8334 16.3918 39.0205 16.7427C38.1979 17.0978 37.3965 17.2869 36.6165 17.3099C35.8413 17.3309 35.114 17.2004 34.4347 16.9186C33.7554 16.6367 33.1471 16.2167 32.6099 15.6586C32.0706 15.0956 31.6245 14.4052 31.2715 13.5875C30.9438 12.8285 30.7619 12.0705 30.7256 11.3136C30.6942 10.5546 30.8064 9.83224 31.0624 9.14668C31.3183 8.46111 31.7137 7.84311 32.2487 7.29267C32.7886 6.74012 33.465 6.2884 34.2778 5.93753ZM39.8454 12.0124C39.5621 11.3563 39.2321 10.7465 38.8552 10.183C38.4763 9.61468 38.0733 9.11187 37.6464 8.6746C37.2223 8.23032 36.7948 7.86588 36.3641 7.58128C35.9334 7.29668 35.5211 7.10868 35.1273 7.01727C34.7363 6.91885 34.3865 6.93622 34.078 7.06939C33.701 7.23215 33.4254 7.48182 33.2512 7.81843C33.0798 8.14802 33.0104 8.55262 33.0432 9.03225C33.0809 9.50975 33.2286 10.0472 33.4865 10.6446C33.7698 11.3007 34.1009 11.913 34.4798 12.4813C34.8588 13.0497 35.2603 13.556 35.6845 14.0003C36.1135 14.4425 36.5434 14.8058 36.9741 15.0904C37.4027 15.3701 37.8126 15.5592 38.2036 15.6576C38.5946 15.756 38.9444 15.7387 39.2528 15.6055C39.6348 15.4406 39.9115 15.1934 40.0829 14.8638C40.2571 14.5272 40.3253 14.1201 40.2877 13.6426C40.2528 13.1581 40.1053 12.6147 39.8454 12.0124Z" fill="#5E3100"/>
<path d="M19.2199 16.5155C19.3842 16.3632 19.5065 16.2206 19.587 16.0878C19.6639 15.951 19.7328 15.8253 19.7937 15.7106C19.851 15.592 19.9247 15.491 20.0146 15.4076C20.1632 15.2698 20.3129 15.2038 20.4636 15.2094C20.6107 15.2112 20.7931 15.2785 21.0108 15.4112L23.1467 16.7146C23.272 16.7948 23.3379 16.8973 23.3446 17.0221C23.3512 17.1468 23.3089 17.266 23.2179 17.3796C23.1424 17.4786 23.0472 17.5524 22.9321 17.6009C22.8174 17.6418 22.68 17.631 22.5201 17.5684C21.9287 17.3385 21.4395 17.203 21.0523 17.162C20.669 17.1174 20.3414 17.1484 20.0694 17.2551C19.7938 17.358 19.5289 17.5272 19.2747 17.7629L18.3186 18.6496L24.2477 25.0436C24.3347 25.1375 24.4307 25.1939 24.5357 25.213C24.6406 25.232 24.755 25.2024 24.8787 25.124L25.3839 24.7865C25.5152 24.7084 25.6315 24.6769 25.7328 24.6921C25.8305 24.7033 25.9283 24.7617 26.0262 24.8673C26.1205 24.969 26.1616 25.08 26.1495 25.2003C26.1374 25.3206 26.059 25.4478 25.9143 25.582L22.6 28.6554C22.4553 28.7895 22.3206 28.8599 22.1958 28.8666C22.0749 28.8695 21.9673 28.8202 21.873 28.7185C21.7135 28.5465 21.6928 28.3438 21.8111 28.1105L22.0219 27.7731C22.0907 27.6512 22.1231 27.5411 22.1193 27.4428C22.1157 27.337 22.0704 27.2372 21.9834 27.1433L16.4459 21.1716C16.3589 21.0778 16.2646 21.027 16.163 21.0194C16.0616 21.0043 15.9476 21.0264 15.8208 21.0858L15.4685 21.2706C15.227 21.3709 15.0264 21.3351 14.8669 21.163C14.7689 21.0574 14.7278 20.9464 14.7436 20.83C14.7596 20.7061 14.8399 20.577 14.9846 20.4428L19.2199 16.5155ZM20.4878 22.6714L22.2124 21.0722C22.4627 20.8401 22.5953 20.6262 22.6103 20.4305C22.6252 20.2348 22.5358 19.9541 22.342 19.5882C22.279 19.4575 22.2568 19.3473 22.2752 19.2574C22.294 19.16 22.3407 19.073 22.4153 18.9966C22.6033 18.815 22.8078 18.7963 23.0288 18.9405L25.1609 20.3456C25.3009 20.4339 25.3823 20.5294 25.4048 20.6322C25.4312 20.7313 25.416 20.8364 25.3589 20.9474C25.298 21.0621 25.2138 21.1439 25.1063 21.1927C24.999 21.2339 24.8667 21.2402 24.7093 21.2116C24.4439 21.145 24.2205 21.1121 24.0394 21.1128C23.8585 21.106 23.6911 21.1411 23.5372 21.2184C23.3834 21.2956 23.2106 21.4231 23.019 21.6007L21.1242 23.3577L20.4878 22.6714Z" fill="#5E3100"/>
<path d="M5.11328 36.4552L7.7642 31.586C7.86876 31.394 7.93801 31.2222 7.97194 31.0706C8.00119 30.9165 8.02513 30.7777 8.04376 30.6543C8.05771 30.5283 8.09401 30.4114 8.15266 30.3037C8.25467 30.1163 8.37802 30.0013 8.5227 29.9586C8.66525 29.9087 8.85957 29.9143 9.10564 29.9754L11.6729 30.781C11.85 30.8349 11.9725 30.9168 12.0402 31.0265C12.108 31.1363 12.1166 31.2655 12.0661 31.4141C12.0253 31.5558 11.9571 31.6644 11.8614 31.7398C11.7635 31.808 11.6288 31.8379 11.4573 31.8295C10.7571 31.7884 10.2084 31.7812 9.81131 31.8079C9.40952 31.832 9.10396 31.9025 8.89464 32.0193C8.68063 32.1335 8.51114 32.3054 8.38618 32.5349L8.05338 33.1462L15.6698 37.2928C15.7822 37.354 15.8901 37.3733 15.9935 37.3507C16.0922 37.3255 16.1922 37.2645 16.2935 37.1678L16.5684 36.8803C16.7653 36.7082 16.9669 36.6782 17.173 36.7904C17.4353 36.9332 17.4746 37.1733 17.291 37.5105L15.256 41.2485C15.1642 41.4171 15.0602 41.5244 14.944 41.5705C14.8304 41.6119 14.7127 41.5994 14.5909 41.5331C14.3848 41.4209 14.3006 41.2354 14.3383 40.9765L14.4305 40.5896C14.4568 40.4521 14.4525 40.3374 14.4175 40.2454C14.3804 40.1463 14.3056 40.0661 14.1932 40.0049L6.57682 35.8583L6.24785 36.4626C6.12289 36.6921 6.07051 36.9277 6.09071 37.1695C6.10622 37.4087 6.21286 37.7036 6.41064 38.0541C6.60373 38.4022 6.9063 38.8614 7.31835 39.4319C7.41849 39.5714 7.4652 39.7031 7.45849 39.827C7.44964 39.9436 7.39674 40.0575 7.29978 40.1687C7.20495 40.2871 7.09305 40.3476 6.96408 40.3503C6.83511 40.3529 6.69865 40.2969 6.55469 40.182L4.48852 38.456C4.30365 38.2825 4.19222 38.1246 4.15423 37.9825C4.11155 37.8378 4.14122 37.6718 4.24322 37.4844C4.30443 37.372 4.38416 37.2757 4.48242 37.1956C4.576 37.113 4.67957 37.0176 4.79313 36.9094C4.90201 36.7986 5.00873 36.6472 5.11328 36.4552Z" fill="#5E3100"/>
<path d="M5.33384 49.8488C5.82985 49.9216 6.26698 50.1018 6.64522 50.3891C7.01819 50.6757 7.31349 51.0506 7.53113 51.5139C7.74427 51.971 7.86058 52.5002 7.88006 53.1014C7.88661 53.3504 7.90115 53.5816 7.92368 53.7952C7.94621 54.0087 7.96083 54.2211 7.96753 54.4323C7.97423 54.6435 7.95859 54.8784 7.9206 55.137C7.87253 55.4641 7.80646 55.7671 7.72238 56.0458C7.63302 56.3238 7.52869 56.5753 7.40937 56.8003C7.28556 57.0193 7.15467 57.213 7.01673 57.3814L6.18123 57.2344C6.30847 57.1022 6.41918 56.954 6.51336 56.79C6.60832 56.6206 6.68977 56.4331 6.75772 56.2275C6.82644 56.0166 6.87902 55.7871 6.91546 55.5391C7.0178 54.8426 6.9073 54.2738 6.58398 53.8328C6.26143 53.3865 5.71232 53.1064 4.93664 52.9924C4.34566 52.9056 3.80621 52.9449 3.3183 53.1104C2.82512 53.2751 2.41598 53.5465 2.0909 53.9246C1.76582 54.3027 1.56335 54.7635 1.4835 55.307L1.40907 55.8136L10.1156 57.0928C10.237 57.1106 10.3411 57.099 10.428 57.0579C10.5096 57.0159 10.5831 56.9378 10.6484 56.8234L10.8083 56.4507C10.8926 56.3175 10.9751 56.2326 11.056 56.196C11.1376 56.1541 11.2338 56.1413 11.3446 56.1575C11.6401 56.201 11.7599 56.4126 11.7041 56.7925L11.0936 60.9479C11.0657 61.1379 11.0052 61.2745 10.9121 61.3579C10.8197 61.436 10.705 61.4649 10.5678 61.4448C10.3356 61.4107 10.1925 61.2656 10.1385 61.0097L10.0914 60.6147C10.0633 60.4758 10.0169 60.3693 9.95236 60.2951C9.88329 60.2149 9.78807 60.1658 9.66671 60.148L1.60921 58.9642C1.48257 58.9455 1.37728 58.9651 1.29332 59.0229C1.20487 59.0745 1.12985 59.1633 1.06825 59.289L0.909534 59.6538C0.784168 59.8833 0.605397 59.981 0.373223 59.9469C0.230753 59.926 0.129171 59.8652 0.0684773 59.7647C0.00328223 59.6581 -0.0153602 59.5098 0.01255 59.3198L0.637042 55.0695C0.820009 53.8242 1.13825 52.7955 1.59178 51.9835C2.04531 51.1714 2.59485 50.5864 3.24041 50.2285C3.88147 49.8645 4.57928 49.7379 5.33384 49.8488ZM7.51835 55.2881L7.62202 52.2711L11.0615 50.8197C11.2391 50.7487 11.3766 50.6746 11.4743 50.5973C11.5666 50.5192 11.65 50.4102 11.7245 50.2702C11.8042 50.131 11.8853 50.0378 11.9677 49.9906C12.0501 49.9434 12.1467 49.928 12.2575 49.9442C12.3947 49.9644 12.4959 50.0278 12.5611 50.1344C12.6263 50.241 12.6449 50.3893 12.617 50.5792L12.0786 54.2439C12.0251 54.608 11.8506 54.7683 11.5551 54.7249C11.4812 54.7141 11.4202 54.6889 11.3721 54.6495C11.3195 54.6041 11.2756 54.5356 11.2406 54.4442L11.2017 54.2687C11.1531 54.1591 11.0956 54.0914 11.0294 54.0655C10.9578 54.0388 10.8507 54.0527 10.7079 54.1072L7.51835 55.2881Z" fill="#5E3100"/>
<path d="M2.21204 76.3018C2.01863 75.4214 1.98532 74.5988 2.11211 73.8337C2.23776 73.0635 2.5035 72.3717 2.90934 71.7583C3.31517 71.145 3.84573 70.627 4.50101 70.2046C5.15108 69.7833 5.91107 69.4771 6.78099 69.2859C7.5884 69.1086 8.3677 69.0766 9.11887 69.19C9.86891 69.2983 10.5561 69.5432 11.1806 69.9248C11.805 70.3063 12.3371 70.8146 12.777 71.4497C13.2168 72.0848 13.5317 72.8347 13.7217 73.6994C13.914 74.5745 13.9473 75.3972 13.8216 76.1674C13.6949 76.9325 13.4285 77.6217 13.0227 78.235C12.6169 78.8484 12.0889 79.3658 11.4389 79.7871C10.7836 80.2095 10.021 80.5163 9.15105 80.7074C8.34364 80.8848 7.56492 80.9194 6.81489 80.8111C6.06371 80.6977 5.37591 80.4502 4.75149 80.0686C4.12707 79.6871 3.5955 79.1813 3.15679 78.5515C2.71693 77.9164 2.40202 77.1665 2.21204 76.3018ZM9.23449 71.9905C8.53647 72.1438 7.87505 72.3519 7.25024 72.6148C6.62021 72.8788 6.04998 73.1788 5.53952 73.5148C5.02272 73.8468 4.58368 74.1972 4.22239 74.566C3.86111 74.9348 3.59817 75.3038 3.43357 75.673C3.26262 76.0382 3.2132 76.3849 3.2853 76.7131C3.37342 77.1142 3.56616 77.4322 3.86351 77.6672C4.15451 77.8982 4.53856 78.0431 5.01567 78.1021C5.49163 78.1559 6.04737 78.113 6.68288 77.9734C7.3809 77.82 8.04492 77.6113 8.67494 77.3473C9.30497 77.0833 9.87838 76.7853 10.3952 76.4534C10.9108 76.1162 11.3493 75.7632 11.7106 75.3944C12.0667 75.0268 12.3302 74.6604 12.5011 74.2952C12.6721 73.93 12.7215 73.5833 12.6494 73.2551C12.5601 72.8488 12.37 72.5302 12.079 72.2993C11.7817 72.0643 11.395 71.9199 10.919 71.8661C10.4367 71.8082 9.87521 71.8497 9.23449 71.9905Z" fill="#5E3100"/>
<path d="M12.0536 88.7861C12.6404 88.407 13.2473 88.2308 13.8742 88.2577C14.501 88.2845 15.1169 88.5057 15.7219 88.9212C16.3195 89.3352 16.8686 89.9297 17.3693 90.7048C17.7021 91.2199 17.9478 91.7183 18.1066 92.1999C18.2579 92.68 18.3355 93.1441 18.3394 93.5924L17.5798 93.9498C17.5863 93.7043 17.5726 93.4719 17.5388 93.2524C17.5021 93.0285 17.4409 92.8109 17.3552 92.5996C17.2666 92.3838 17.1514 92.1662 17.0096 91.9466C16.7723 91.5793 16.4797 91.2984 16.1319 91.104C15.7768 90.9081 15.3859 90.824 14.9595 90.8519C14.5285 90.8826 14.0801 91.0485 13.6142 91.3495C13.0766 91.6967 12.6781 92.097 12.4185 92.5504C12.1545 93.0067 12.0316 93.4798 12.0496 93.9697C12.0632 94.4625 12.2219 94.9441 12.5258 95.4145L12.7515 95.7639L20.0829 91.028C20.1859 90.9615 20.2582 90.8767 20.2996 90.7737C20.3366 90.6737 20.3272 90.5559 20.2714 90.4205L20.0419 89.8735C19.9833 89.7336 19.9702 89.6151 20.0027 89.5179C20.0278 89.4192 20.1008 89.3307 20.2217 89.2526C20.3382 89.1773 20.4561 89.1583 20.5754 89.1956C20.6918 89.2283 20.8035 89.3276 20.9106 89.4933L23.3545 93.2766C23.4616 93.4424 23.5076 93.5873 23.4925 93.7113C23.4745 93.8309 23.4072 93.9283 23.2908 94.0035C23.0936 94.1309 22.8905 94.1161 22.6812 93.9592L22.3855 93.6931C22.2699 93.6027 22.1634 93.5508 22.0659 93.5376C21.964 93.5272 21.8615 93.5553 21.7585 93.6219L14.9177 98.0409C14.8146 98.1075 14.7491 98.1879 14.7211 98.2822C14.6887 98.3794 14.6899 98.4992 14.7248 98.6417L14.8458 99.0207C14.9028 99.276 14.8327 99.4673 14.6356 99.5946C14.5146 99.6728 14.3982 99.694 14.2863 99.6583C14.167 99.6211 14.0552 99.5219 13.9511 99.3606L11.6851 95.8528C11.0253 94.8314 10.6139 93.8654 10.4511 92.9547C10.2808 92.0424 10.3362 91.2288 10.6173 90.5139C10.8983 89.799 11.3771 89.2231 12.0536 88.7861Z" fill="#5E3100"/>
<path d="M36.2441 105.388C36.3084 105.278 36.3307 105.17 36.3109 105.066C36.2885 104.967 36.2327 104.867 36.1434 104.765L35.8636 104.483C35.6925 104.278 35.6658 104.075 35.7837 103.872C35.8534 103.752 35.9498 103.681 36.073 103.661C36.1916 103.637 36.3362 103.675 36.5068 103.774L40.1867 105.912C40.3527 106.008 40.4571 106.115 40.4999 106.233C40.5381 106.348 40.5224 106.465 40.4527 106.585C40.3348 106.788 40.147 106.867 39.8894 106.822L39.5051 106.719C39.3684 106.689 39.2536 106.69 39.1607 106.722C39.0606 106.757 38.9784 106.829 38.9141 106.94L34.8225 113.981C34.7582 114.092 34.7372 114.197 34.7596 114.296C34.7748 114.398 34.8293 114.5 34.9231 114.604L35.2029 114.887C35.3695 115.089 35.3938 115.291 35.2759 115.494C35.2036 115.618 35.1094 115.69 34.9935 115.709C34.8703 115.73 34.7257 115.692 34.5597 115.596L30.8799 113.458C30.7092 113.359 30.6048 113.252 30.5666 113.137C30.5211 113.024 30.5346 112.905 30.6069 112.781C30.7248 112.578 30.9149 112.5 31.1772 112.548L31.5615 112.651C31.6936 112.678 31.8097 112.675 31.9098 112.64C32.0073 112.611 32.0882 112.541 32.1525 112.43L36.2441 105.388Z" fill="#5E3100"/>
<path d="M54.7016 114.386L50.1379 113.349L50.3343 112.376L54.9604 113.427L54.7016 114.386ZM54.5635 110.047C54.5942 109.912 54.6627 109.815 54.7688 109.757C54.875 109.7 55.0242 109.692 55.2167 109.736L57.6974 110.3C57.8846 110.342 58.0162 110.413 58.0921 110.513C58.168 110.612 58.1906 110.729 58.1598 110.864C58.1386 110.958 58.0974 111.031 58.0364 111.083C57.9691 111.138 57.8679 111.186 57.7329 111.227L57.4992 111.28C57.3179 111.332 57.1645 111.418 57.039 111.537C56.9123 111.661 56.7547 111.885 56.5663 112.209L52.7135 118.766C52.5688 119.018 52.4985 119.207 52.5025 119.333C52.5014 119.459 52.5861 119.579 52.7568 119.695C52.883 119.789 52.9685 119.882 53.0132 119.974C53.0527 120.065 53.06 120.166 53.0352 120.275C53.0044 120.41 52.934 120.503 52.8238 120.555C52.7125 120.612 52.5632 120.619 52.376 120.576L47.9762 119.576C47.7837 119.533 47.6522 119.462 47.5815 119.364C47.5044 119.27 47.4812 119.155 47.512 119.02C47.5392 118.9 47.5928 118.808 47.673 118.745C47.7519 118.686 47.8565 118.647 47.9868 118.627C48.1338 118.606 48.231 118.551 48.2782 118.464C48.3243 118.381 48.3392 118.231 48.3229 118.014L47.5993 110.007C47.573 109.689 47.5317 109.45 47.4752 109.29C47.4135 109.128 47.3091 108.998 47.162 108.899C47.0185 108.784 46.9265 108.684 46.8858 108.598C46.8451 108.512 46.8378 108.412 46.8638 108.298C46.8945 108.162 46.9656 108.066 47.0769 108.01C47.1883 107.953 47.3375 107.946 47.5248 107.988L51.3161 108.85C51.5085 108.894 51.6427 108.965 51.7186 109.064C51.7893 109.162 51.8092 109.279 51.7785 109.414C51.7537 109.524 51.7056 109.603 51.6342 109.652C51.5564 109.706 51.4492 109.744 51.3126 109.768L50.9463 109.791C50.7993 109.813 50.7197 109.874 50.7077 109.975C50.6956 110.076 50.698 110.246 50.7148 110.485L51.4118 119.151L51.0788 119.281L55.3061 112.086C55.4333 111.864 55.514 111.677 55.5483 111.526C55.5825 111.375 55.5641 111.24 55.4929 111.12C55.4218 111 55.2954 110.87 55.1139 110.73L54.8266 110.55C54.7229 110.477 54.6469 110.403 54.5986 110.326C54.5504 110.249 54.5387 110.156 54.5635 110.047Z" fill="#5E3100"/>
<path d="M65.9446 116.85C65.8779 116.353 65.9305 115.883 66.1025 115.44C66.2752 115.003 66.5542 114.616 66.9394 114.279C67.3201 113.948 67.7968 113.69 68.3693 113.506C68.6068 113.431 68.8251 113.353 69.0241 113.272C69.2232 113.192 69.4233 113.119 69.6245 113.055C69.8257 112.99 70.0558 112.94 70.3148 112.906C70.6425 112.862 70.952 112.842 71.2431 112.846C71.5349 112.855 71.8054 112.886 72.0546 112.938C72.2993 112.997 72.5216 113.07 72.7215 113.156L72.8105 113.999C72.6483 113.914 72.4753 113.848 72.2917 113.803C72.1027 113.758 71.9001 113.731 71.6837 113.723C71.462 113.715 71.2269 113.728 70.9785 113.761C70.2807 113.855 69.7644 114.118 69.4296 114.55C69.0896 114.983 68.9716 115.588 69.0759 116.365C69.1554 116.957 69.3419 117.465 69.6355 117.888C69.9298 118.317 70.3034 118.635 70.7565 118.844C71.2095 119.052 71.7083 119.119 72.2528 119.046L72.7602 118.978L71.5898 110.256C71.5735 110.135 71.5336 110.038 71.4701 109.966C71.4073 109.899 71.3119 109.85 71.1839 109.819L70.7816 109.768C70.6304 109.723 70.526 109.667 70.4685 109.6C70.4057 109.533 70.3669 109.444 70.352 109.333C70.3122 109.037 70.4827 108.863 70.8633 108.812L75.026 108.254C75.2163 108.228 75.3643 108.249 75.4701 108.315C75.5706 108.382 75.63 108.485 75.6485 108.622C75.6797 108.855 75.5798 109.032 75.3487 109.155L74.9819 109.309C74.8561 109.374 74.7665 109.448 74.713 109.531C74.6549 109.619 74.6341 109.724 74.6504 109.846L75.7335 117.917C75.7505 118.044 75.7984 118.14 75.877 118.205C75.9511 118.276 76.057 118.323 76.1949 118.348L76.5893 118.4C76.8445 118.457 76.9877 118.602 77.0189 118.835C77.0381 118.977 77.0077 119.092 76.9278 119.178C76.8433 119.27 76.7059 119.329 76.5156 119.354L72.2577 119.926C71.0102 120.093 69.9337 120.071 69.0281 119.858C68.1225 119.646 67.4087 119.279 66.8867 118.758C66.36 118.242 66.046 117.606 65.9446 116.85ZM70.571 113.251L67.6423 113.983L65.299 111.076C65.1818 110.925 65.0727 110.814 64.9714 110.741C64.8709 110.674 64.7431 110.624 64.588 110.591C64.4322 110.552 64.3203 110.5 64.2522 110.434C64.1841 110.368 64.1427 110.279 64.1278 110.168C64.1093 110.031 64.1423 109.916 64.2269 109.824C64.3114 109.732 64.4488 109.673 64.6391 109.648L68.3102 109.155C68.6749 109.106 68.8771 109.229 68.9168 109.525C68.9268 109.599 68.9194 109.665 68.8948 109.722C68.8656 109.785 68.8119 109.846 68.7337 109.905L68.5757 109.991C68.4838 110.068 68.4345 110.142 68.4279 110.213C68.4219 110.289 68.4649 110.388 68.5566 110.51L70.571 113.251Z" fill="#5E3100"/>
<path d="M85.6811 108.612L87.9943 112.319C88.1391 112.544 88.2937 112.697 88.4583 112.779C88.6181 112.862 88.807 112.876 89.0249 112.82L89.3269 112.74C89.5094 112.696 89.6525 112.692 89.7561 112.728C89.8597 112.763 89.9429 112.839 90.0059 112.957C90.0689 113.074 90.0793 113.19 90.0372 113.303C89.9929 113.424 89.8955 113.524 89.7451 113.605L87.1572 114.992C87.0021 115.075 86.8644 115.1 86.7442 115.068C86.6218 115.043 86.5291 114.971 86.4661 114.854C86.4031 114.736 86.388 114.623 86.4207 114.515C86.456 114.411 86.5386 114.294 86.6685 114.164L86.8884 113.965C87.1044 113.758 87.217 113.562 87.226 113.375C87.2304 113.192 87.1638 112.988 87.0262 112.765L84.7335 109.147C84.5837 108.913 84.4411 108.681 84.3058 108.451C84.1657 108.223 84.024 107.982 83.8808 107.726C83.5587 107.136 83.4115 106.528 83.4391 105.902C83.4692 105.281 83.7027 104.678 84.1395 104.093C84.5764 103.508 85.246 102.973 86.1486 102.49C87.07 101.996 87.9066 101.711 88.6585 101.635C89.4056 101.561 90.0567 101.675 90.6116 101.977C91.1691 102.283 91.6166 102.751 91.9542 103.381C92.0024 103.482 92.0632 103.607 92.1365 103.755C92.2052 103.906 92.2928 104.092 92.3993 104.313C92.5036 104.542 92.6269 104.812 92.7694 105.123L94.6461 109.218C94.7072 109.354 94.7883 109.438 94.8894 109.469C94.9883 109.506 95.1301 109.5 95.3148 109.449L95.6661 109.343C95.9976 109.25 96.225 109.319 96.3484 109.549C96.4139 109.671 96.4256 109.789 96.3835 109.902C96.3391 110.023 96.2394 110.125 96.0843 110.208L91.9804 112.407C91.8252 112.49 91.6876 112.516 91.5673 112.483C91.4449 112.458 91.351 112.384 91.2855 112.262C91.225 112.149 91.2099 112.036 91.2401 111.923C91.2682 111.818 91.3533 111.705 91.4955 111.587L91.7891 111.339C91.9009 111.242 91.9685 111.143 91.9918 111.039C92.0104 110.939 91.9892 110.82 91.928 110.683L90.0221 106.568C89.8818 106.249 89.7448 105.96 89.6109 105.699C89.4796 105.442 89.3659 105.219 89.2699 105.028C88.8438 104.222 88.3526 103.729 87.7964 103.549C87.2379 103.376 86.639 103.461 85.9997 103.804C85.5202 104.061 85.1555 104.368 84.9055 104.726C84.6534 105.091 84.5202 105.486 84.5059 105.911C84.4942 106.341 84.614 106.779 84.8652 107.225C85.0416 107.554 85.1935 107.821 85.3209 108.025C85.4462 108.236 85.5663 108.432 85.6811 108.612Z" fill="#5E3100"/>
<path d="M104.714 91.7764L105.028 97.992C105.04 98.3276 105.088 98.5852 105.172 98.7646C105.256 98.944 105.368 99.0517 105.506 99.0875C105.645 99.1309 105.802 99.105 105.977 99.0098L106.266 98.8368C106.386 98.7794 106.494 98.7531 106.589 98.7579C106.684 98.7627 106.774 98.8019 106.858 98.8755C106.967 98.9701 107.019 99.0761 107.016 99.1935C107.013 99.3185 106.947 99.4553 106.817 99.6041L104.626 102.119C104.496 102.268 104.371 102.35 104.252 102.366C104.132 102.389 104.018 102.354 103.91 102.259C103.821 102.182 103.775 102.093 103.772 101.991C103.769 101.896 103.808 101.743 103.888 101.529C103.916 101.448 103.942 101.357 103.966 101.257C103.985 101.162 103.999 101.028 104.006 100.858C104.017 100.691 104.022 100.458 104.02 100.159C104.019 99.8683 104.013 99.4774 104.002 98.9868L103.754 91.5021L104.714 91.7764ZM104.513 93.9562L104.441 97.0457L97.3497 95.8322C97.1163 95.7915 96.9324 95.7834 96.798 95.8077C96.6641 95.8396 96.5393 95.8936 96.4235 95.9696C96.2737 96.0441 96.1453 96.0737 96.0384 96.0584C95.9355 96.0466 95.8419 96.0039 95.7574 95.9303C95.6529 95.8392 95.602 95.7312 95.6047 95.6062C95.6075 95.4813 95.6719 95.3465 95.798 95.2017L98.5625 92.0291C98.6886 91.8844 98.8134 91.8021 98.9368 91.7823C99.0601 91.7625 99.1761 91.7998 99.2847 91.8944C99.3691 91.968 99.4222 92.0532 99.444 92.15C99.4658 92.2468 99.4572 92.3419 99.4183 92.4353L99.2683 92.7291C99.2259 92.8265 99.2409 92.9068 99.3132 92.9698C99.3821 93.0369 99.5295 93.091 99.7553 93.1322L104.513 93.9562ZM101.875 90.554C101.778 90.4699 101.684 90.4235 101.593 90.4146C101.498 90.4098 101.394 90.4358 101.281 90.4928L100.992 90.6657C100.846 90.7363 100.729 90.7651 100.641 90.7522C100.553 90.7394 100.467 90.6962 100.382 90.6226C100.278 90.5315 100.225 90.4255 100.224 90.3046C100.224 90.1836 100.288 90.0488 100.418 89.9L103.13 86.7878C103.259 86.639 103.386 86.5547 103.509 86.5349C103.629 86.5191 103.741 86.5567 103.846 86.6478C104.023 86.802 104.065 87.0013 103.972 87.2459L103.798 87.6037C103.743 87.7322 103.722 87.8452 103.736 87.9425C103.751 88.0473 103.807 88.1418 103.903 88.2259L110.043 93.576C110.14 93.6601 110.239 93.7006 110.341 93.6973C110.443 93.7016 110.554 93.6675 110.674 93.595L111.005 93.3739C111.234 93.2485 111.437 93.2628 111.614 93.417C111.723 93.5116 111.776 93.6176 111.772 93.735C111.77 93.86 111.703 93.9968 111.574 94.1456L108.783 97.3483C108.653 97.4971 108.529 97.5794 108.409 97.5952C108.289 97.6185 108.175 97.5829 108.067 97.4883C107.89 97.3341 107.848 97.1348 107.941 96.8902L108.114 96.5324C108.17 96.4038 108.19 96.2871 108.175 96.1823C108.165 96.081 108.111 95.9883 108.015 95.9042L101.875 90.554Z" fill="#5E3100"/>
<path d="M113.468 73.5339L111.852 77.9262L110.913 77.6062L112.551 73.1539L113.468 73.5339ZM109.148 73.1125C109.018 73.0646 108.931 72.9843 108.887 72.8716C108.843 72.7589 108.855 72.61 108.923 72.4248L109.802 70.0372C109.868 69.857 109.955 69.7357 110.064 69.6732C110.172 69.6107 110.291 69.6034 110.421 69.6513C110.511 69.6844 110.578 69.7346 110.621 69.8017C110.668 69.8757 110.703 69.9822 110.726 70.1213L110.749 70.3599C110.777 70.5464 110.842 70.7095 110.944 70.8493C111.051 70.991 111.252 71.1761 111.549 71.4045L117.556 76.0692C117.787 76.2451 117.965 76.3391 118.091 76.3515C118.216 76.3688 118.346 76.3002 118.483 76.1458C118.592 76.0328 118.696 75.96 118.793 75.9276C118.888 75.9001 118.989 75.9057 119.094 75.9444C119.224 75.9923 119.307 76.0742 119.344 76.19C119.386 76.3078 119.374 76.4567 119.308 76.6369L117.75 80.8715C117.682 81.0567 117.595 81.178 117.488 81.2355C117.385 81.2998 117.268 81.308 117.138 81.2601C117.023 81.2178 116.939 81.1528 116.886 81.0651C116.838 80.9792 116.813 80.8705 116.81 80.7388C116.808 80.5902 116.766 80.4869 116.685 80.4287C116.609 80.3724 116.463 80.3383 116.246 80.3266L108.212 80.0136C107.893 79.9988 107.651 80.009 107.484 80.0444C107.316 80.0848 107.173 80.1715 107.056 80.3046C106.924 80.4321 106.813 80.5105 106.722 80.5398C106.632 80.5691 106.532 80.5635 106.422 80.523C106.292 80.4751 106.206 80.3923 106.164 80.2746C106.122 80.1569 106.134 80.0079 106.2 79.8277L107.542 76.1788C107.611 75.9936 107.699 75.8698 107.807 75.8073C107.913 75.7498 108.032 75.745 108.162 75.7929C108.267 75.8316 108.339 75.8895 108.379 75.9666C108.422 76.0506 108.447 76.1619 108.452 76.3004L108.428 76.6667C108.431 76.8153 108.481 76.902 108.58 76.927C108.679 76.952 108.848 76.9715 109.087 76.9856L117.77 77.4097L117.856 77.7565L111.266 72.6385C111.061 72.4838 110.886 72.3797 110.741 72.3263C110.596 72.2729 110.459 72.2737 110.331 72.3289C110.203 72.384 110.058 72.4926 109.896 72.6546L109.68 72.9163C109.595 73.0098 109.511 73.0756 109.429 73.1135C109.347 73.1515 109.253 73.1512 109.148 73.1125Z" fill="#5E3100"/>
<path d="M110.055 59.2209C110.064 58.8157 110.117 58.4674 110.214 58.1761C110.311 57.8902 110.404 57.6522 110.494 57.4621C110.589 57.2774 110.637 57.1318 110.639 57.0251C110.642 56.9078 110.615 56.8059 110.558 56.7193C110.507 56.6328 110.442 56.5461 110.364 56.459C110.291 56.3774 110.229 56.2933 110.177 56.2069C110.12 56.1203 110.093 56.0236 110.095 55.917C110.099 55.7784 110.141 55.6646 110.223 55.5757C110.305 55.4921 110.439 55.4364 110.627 55.4085L113.333 54.9635C113.467 54.9451 113.578 54.9662 113.668 55.0268C113.762 55.0929 113.835 55.1959 113.885 55.3357C113.93 55.486 113.922 55.6165 113.861 55.7272C113.805 55.838 113.696 55.9343 113.534 56.0162C112.898 56.3277 112.4 56.6449 112.041 56.9678C111.682 57.2907 111.424 57.6238 111.267 57.9671C111.115 58.3105 111.036 58.6635 111.028 59.0261C111.017 59.522 111.131 59.9166 111.37 60.2099C111.614 60.5086 111.95 60.6653 112.376 60.68C112.664 60.6863 112.919 60.6225 113.14 60.4886C113.367 60.3602 113.589 60.1037 113.805 59.719C114.027 59.3344 114.264 58.7634 114.515 58.0061C114.789 57.1852 115.102 56.5305 115.454 56.0421C115.806 55.559 116.222 55.2107 116.701 54.9971C117.186 54.7837 117.751 54.684 118.396 54.6981C119.063 54.7127 119.648 54.8855 120.153 55.2166C120.663 55.5532 121.056 56.0179 121.331 56.6107C121.606 57.2088 121.735 57.9051 121.717 58.6996C121.707 59.1582 121.654 59.5411 121.556 59.8484C121.464 60.1558 121.371 60.4124 121.275 60.6184C121.186 60.8245 121.139 61.0022 121.136 61.1515C121.133 61.2741 121.176 61.3791 121.265 61.4664C121.359 61.5591 121.45 61.6545 121.539 61.7524C121.632 61.8559 121.678 61.9875 121.674 62.1475C121.671 62.2915 121.623 62.4078 121.53 62.4964C121.443 62.5906 121.273 62.6722 121.021 62.7414L118.358 63.4193C118.191 63.4584 118.045 63.4472 117.918 63.3857C117.791 63.3296 117.706 63.2264 117.661 63.076C117.616 62.9257 117.624 62.7952 117.685 62.6845C117.747 62.5738 117.85 62.48 117.996 62.4032C118.675 62.0766 119.213 61.7256 119.611 61.3502C120.009 60.9748 120.294 60.5916 120.468 60.2007C120.642 59.8097 120.733 59.4196 120.742 59.0304C120.753 58.5452 120.622 58.1609 120.351 57.8776C120.085 57.5944 119.734 57.448 119.296 57.4384C119.025 57.4325 118.77 57.4909 118.532 57.6138C118.3 57.7367 118.066 57.985 117.828 58.3585C117.596 58.7376 117.341 59.2948 117.063 60.0302C116.752 60.8503 116.418 61.4991 116.061 61.9768C115.709 62.4599 115.309 62.8059 114.862 63.0148C114.42 63.2239 113.905 63.322 113.319 63.3092C112.7 63.2957 112.141 63.1234 111.642 62.7924C111.142 62.4614 110.747 61.994 110.456 61.3902C110.17 60.7865 110.037 60.0634 110.055 59.2209Z" fill="#5E3100"/>
<path d="M112.955 29.3454C113.384 30.1385 113.642 30.9202 113.731 31.6906C113.822 32.4656 113.757 33.2039 113.536 33.9053C113.315 34.6067 112.947 35.2506 112.434 35.8372C111.925 36.4212 111.278 36.9248 110.495 37.348C109.767 37.7409 109.027 37.9862 108.274 38.0839C107.523 38.1864 106.795 38.1401 106.089 37.9452C105.384 37.7503 104.732 37.4082 104.135 36.9187C103.537 36.4293 103.028 35.7951 102.607 35.0161C102.181 34.2277 101.923 33.446 101.832 32.671C101.743 31.9006 101.809 31.1647 102.03 30.4633C102.252 29.7619 102.617 29.1192 103.126 28.5352C103.639 27.9487 104.288 27.4438 105.072 27.0205C105.799 26.6277 106.538 26.3801 107.289 26.2776C108.042 26.1799 108.772 26.2284 109.477 26.4233C110.182 26.6182 110.833 26.9581 111.428 27.4428C112.026 27.9322 112.535 28.5664 112.955 29.3454ZM107.391 35.4236C108.02 35.0839 108.599 34.7018 109.127 34.277C109.66 33.8498 110.126 33.4044 110.524 32.9408C110.929 32.4794 111.255 32.0216 111.501 31.5676C111.746 31.1136 111.898 30.6865 111.954 30.2862C112.018 29.8881 111.97 29.5412 111.81 29.2455C111.615 28.8842 111.342 28.6315 110.992 28.4874C110.649 28.3456 110.239 28.3119 109.765 28.3866C109.292 28.4659 108.77 28.6602 108.197 28.9694C107.568 29.309 106.987 29.6924 106.454 30.1197C105.921 30.5469 105.452 30.9913 105.047 31.4527C104.644 31.9188 104.32 32.3789 104.074 32.8329C103.833 33.2843 103.68 33.7091 103.616 34.1073C103.553 34.5054 103.601 34.8523 103.76 35.148C103.958 35.514 104.228 35.768 104.572 35.9098C104.922 36.0539 105.334 36.0863 105.806 36.0069C106.286 35.9297 106.814 35.7353 107.391 35.4236Z" fill="#5E3100"/>
<path d="M91.1954 14.3835L96.4236 18.7815L95.785 19.5406L90.5568 15.1426L91.1954 14.3835ZM89.8106 18.8011C89.7282 18.899 89.6878 19.0009 89.6893 19.1068C89.6943 19.2085 89.7341 19.3187 89.8087 19.4371L90.0356 19.7639C90.165 19.9912 90.1541 20.1947 90.0031 20.3743C89.9138 20.4804 89.8067 20.5331 89.6817 20.5326C89.5608 20.5354 89.4249 20.4733 89.2739 20.3463L86.017 17.6066C85.87 17.483 85.7856 17.3597 85.7636 17.2367C85.7457 17.1171 85.7814 17.0042 85.8707 16.8981C86.0218 16.7185 86.2203 16.673 86.4665 16.7616L86.8273 16.9292C86.9568 16.9823 87.07 17.001 87.1671 16.985C87.2716 16.9684 87.3651 16.9112 87.4475 16.8132L92.6901 10.581C92.7725 10.4831 92.8112 10.3832 92.8062 10.2814C92.8087 10.179 92.7727 10.0686 92.6981 9.95008L92.4712 9.6233C92.3418 9.39599 92.3527 9.19254 92.5037 9.01296C92.5964 8.90277 92.7015 8.84828 92.8189 8.84951C92.9439 8.85009 93.0798 8.91217 93.2268 9.03577L96.4837 11.7755C96.6347 11.9025 96.7191 12.0258 96.737 12.1454C96.7624 12.2644 96.7288 12.3789 96.6361 12.4891C96.485 12.6687 96.2864 12.7142 96.0403 12.6257L95.6795 12.4581C95.55 12.4049 95.433 12.3866 95.3284 12.4032C95.2273 12.4157 95.1356 12.4709 95.0532 12.5689L89.8106 18.8011ZM95.2163 23.3484C95.1339 23.4463 95.0935 23.5482 95.0951 23.6541C95.1001 23.7559 95.1398 23.866 95.2144 23.9845L95.4413 24.3112C95.5707 24.5386 95.5599 24.742 95.4088 24.9216C95.3195 25.0277 95.2124 25.0805 95.0874 25.0799C94.9666 25.0827 94.8306 25.0207 94.6796 24.8936L91.4227 22.1539C91.2758 22.0303 91.1913 21.907 91.1694 21.784C91.1515 21.6644 91.1872 21.5515 91.2764 21.4454C91.4275 21.2659 91.6261 21.2203 91.8722 21.3089L92.233 21.4765C92.3625 21.5297 92.4758 21.5483 92.5728 21.5324C92.6774 21.5158 92.7708 21.4585 92.8532 21.3605L98.0958 15.1283C98.1782 15.0304 98.2169 14.9305 98.2119 14.8288C98.2144 14.7263 98.1784 14.6159 98.1038 14.4974L97.8769 14.1706C97.7475 13.9433 97.7584 13.7399 97.9095 13.5603C98.0022 13.4501 98.1072 13.3956 98.2247 13.3968C98.3496 13.3974 98.4856 13.4595 98.6325 13.5831L101.889 16.3228C102.04 16.4498 102.125 16.5732 102.143 16.6927C102.168 16.8117 102.135 16.9262 102.042 17.0364C101.891 17.216 101.692 17.2615 101.446 17.173L101.085 17.0054C100.956 16.9522 100.839 16.9339 100.734 16.9505C100.633 16.963 100.541 17.0182 100.459 17.1162L95.2163 23.3484Z" fill="#5E3100"/>
<path d="M75.4063 13.5145C75.0254 13.376 74.7126 13.214 74.4679 13.0285C74.2283 12.8449 74.0328 12.6801 73.8815 12.5343C73.7371 12.3853 73.6147 12.2926 73.5145 12.2561C73.4042 12.216 73.299 12.2089 73.1987 12.2349C73.1003 12.2559 72.9973 12.2894 72.8898 12.3354C72.7891 12.3782 72.6895 12.4101 72.5911 12.431C72.4909 12.457 72.3906 12.4518 72.2904 12.4153C72.1601 12.3679 72.066 12.2911 72.0081 12.1849C71.9553 12.0806 71.9457 11.9352 71.9794 11.7489L72.4273 9.04298C72.4528 8.91039 72.5086 8.81151 72.5948 8.74636C72.6877 8.67802 72.8085 8.64248 72.957 8.63976C73.1138 8.64569 73.2347 8.69537 73.3199 8.78879C73.407 8.87719 73.4632 9.01116 73.4887 9.19069C73.5794 9.89332 73.7199 10.4665 73.9103 10.9104C74.1008 11.3542 74.3334 11.7055 74.6081 11.9643C74.8847 12.2182 75.1934 12.4071 75.5342 12.531C76.0003 12.7006 76.4106 12.7193 76.7651 12.5871C77.1265 12.4518 77.3826 12.1846 77.5334 11.7855C77.6319 11.5148 77.6533 11.253 77.5977 11.0001C77.549 10.7441 77.3772 10.4518 77.0824 10.1232C76.7895 9.78964 76.3247 9.38225 75.6882 8.90103C74.9988 8.37789 74.4794 7.87117 74.13 7.38086C73.7855 6.89237 73.5892 6.38681 73.5409 5.86416C73.4945 5.33651 73.5815 4.76945 73.8021 4.16298C74.03 3.53647 74.3818 3.03732 74.8575 2.66554C75.3401 2.29056 75.9062 2.06801 76.556 1.99788C77.2108 1.92958 77.9116 2.03124 78.6584 2.30286C79.0894 2.45963 79.4348 2.63349 79.6945 2.82443C79.9561 3.01035 80.1691 3.18147 80.3336 3.33777C80.4999 3.48906 80.6532 3.59022 80.7935 3.64127C80.9088 3.6832 81.022 3.67614 81.1332 3.6201C81.2512 3.56087 81.3709 3.50506 81.4921 3.45267C81.6201 3.39709 81.7593 3.39664 81.9097 3.45133C82.045 3.50055 82.1398 3.58326 82.194 3.69946C82.255 3.81246 82.2778 3.99951 82.2623 4.2606L82.0489 7.00069C82.0324 7.17064 81.9748 7.30574 81.8759 7.40598C81.782 7.50804 81.6567 7.55611 81.5 7.55017C81.3432 7.54424 81.2223 7.49456 81.1371 7.40115C81.0519 7.30773 80.9963 7.17969 80.9703 7.01702C80.8792 6.26882 80.7198 5.64615 80.492 5.14902C80.2642 4.65188 79.9931 4.25817 79.6787 3.9679C79.3644 3.67762 79.0242 3.46595 78.6583 3.33287C78.2022 3.16698 77.7965 3.16696 77.441 3.33279C77.0874 3.49361 76.8359 3.77952 76.6864 4.19052C76.5934 4.44613 76.567 4.70608 76.6071 4.97037C76.649 5.22964 76.8087 5.53175 77.0861 5.8767C77.3705 6.21846 77.8163 6.63884 78.4236 7.13782C79.1003 7.69605 79.6074 8.221 79.945 8.71268C80.2894 9.20117 80.4887 9.69078 80.5429 10.1815C80.5989 10.6673 80.5267 11.1858 80.3262 11.7371C80.1147 12.3185 79.772 12.7926 79.2981 13.1594C78.8242 13.5262 78.2546 13.7503 77.5893 13.8318C76.9259 13.9083 76.1982 13.8026 75.4063 13.5145Z" fill="#5E3100"/>
</svg>
